<?xml version="1.0" encoding="UTF-8"?>
<svg id="Capa_1" data-name="Capa 1" xmlns="http://www.w3.org/2000/svg" viewBox="0 0 19.52 15.4">
  <defs>
    <style>
      .cls-1 {
        fill: none;
      }

      .cls-2 {
        fill: #202020;
      }
    </style>
  </defs>
  <path d="M18.33.62c.69.42.36,4.15.25,5.04-.17,1.43-.6,4.28-1.02,5.59-.56,1.75-1.11,1.79-2.89,1.99-1.51.17-3.3.06-4.86.22-2.16.22-4.7.83-6.83.93-2.4.11-2.06-5.16-1.87-6.87.24-2.12,1.14-4.15,3.2-4.99,3.34-1.38,7.28-1.38,10.81-1.63,1.06-.07,2.13-.54,3.2-.29ZM17.72,1.24c-3.72.44-7.54.38-11.21,1.25-.55.13-2.98.81-2.87,1.51.06.38,3.64,2.71,4.05,3.39.46.26.82.45,1.38.36,1.05-.16,4.38-2.67,5.38-3.44,1.15-.88,2.58-1.81,3.26-3.08ZM18.05,2.13c-1.52,1.46-3.19,2.79-4.94,3.98-1.08.73-3.58,2.6-4.77,2.42-1.04-.16-4.96-4.09-5.42-3.92-1.32,1.86-1.51,5.29-1.09,7.46.11.54.39,1.58,1.04,1.59,4.53-.59,9.12-.79,13.61-1.56.36-.25.61-1.74.72-2.24.21-.99,1.28-7.31.86-7.73Z"/>
  <g>
    <path class="cls-1" d="M18.33.62c.69.42.36,4.15.25,5.04-.17,1.43-.6,4.28-1.02,5.59-.56,1.75-1.11,1.79-2.89,1.99-1.51.17-3.3.06-4.86.22-2.16.22-4.7.83-6.83.93-2.4.11-2.06-5.16-1.87-6.87.24-2.12,1.14-4.15,3.2-4.99,3.34-1.38,7.28-1.38,10.81-1.63,1.06-.07,2.13-.54,3.2-.29ZM17.72,1.24c-3.72.44-7.54.38-11.21,1.25-.55.13-2.98.81-2.87,1.51.06.38,3.64,2.71,4.05,3.39.46.26.82.45,1.38.36,1.05-.16,4.38-2.67,5.38-3.44,1.15-.88,2.58-1.81,3.26-3.08ZM18.05,2.13c-1.52,1.46-3.19,2.79-4.94,3.98-1.08.73-3.58,2.6-4.77,2.42-1.04-.16-4.96-4.09-5.42-3.92-1.32,1.86-1.51,5.29-1.09,7.46.11.54.39,1.58,1.04,1.59,4.53-.59,9.12-.79,13.61-1.56.36-.25.61-1.74.72-2.24.21-.99,1.28-7.31.86-7.73Z"/>
    <g>
      <path class="cls-2" d="M18.17,2.01s-.06.03,0,.12c.03,0,.07.02.11.04-.03-.06-.07-.11-.11-.16Z"/>
      <path class="cls-2" d="M18.16,2.62c.04.09.11.19.19.13-.08-.09-.05-.11-.14-.21-.02-.08.01-.14.04-.13-.02-.03,0-.13-.05-.16-.05.12-.03.24.02.37-.02.03-.04,0-.06,0Z"/>
      <path class="cls-2" d="M17.07,9.92l.02-.05s-.01.03-.02.05Z"/>
      <path class="cls-2" d="M14.19,12.28s.05-.02.05-.02c-.03,0-.06.02-.05.02Z"/>
      <path class="cls-2" d="M13.4,12.29s.03,0,.05,0c-.02,0-.04,0-.05,0Z"/>
      <path class="cls-2" d="M17.07,9.92l-.05.12s.03-.06.05-.12Z"/>
      <path class="cls-2" d="M18.32,3.66s0-.05-.02-.07v.06s.02,0,.02,0Z"/>
      <path class="cls-2" d="M17.35,7.93v-.04s-.01-.02-.02-.04l.02.07Z"/>
      <path class="cls-2" d="M17.58,6.4s.06.06.09.07c-.03-.02-.04-.05-.04-.08-.01,0-.03,0-.05,0Z"/>
      <path class="cls-2" d="M18,3.98v-.04s0,.03,0,.04Z"/>
      <path class="cls-2" d="M17.15,9.02s-.02,0-.03,0c0,0,.02,0,.03,0Z"/>
      <path class="cls-2" d="M16.51,3.09s0,0,0,0c0-.01,0-.02,0,0Z"/>
      <polygon class="cls-2" points="18.06 2.14 18.05 2.16 18.07 2.19 18.06 2.14"/>
      <path class="cls-2" d="M11.98,12.37h0s.02,0,0,0Z"/>
      <path class="cls-2" d="M1.93,10.15c-.06.15-.08-.24-.15-.01.03-.02.11.2.15.01Z"/>
      <path class="cls-2" d="M18.3,3.7v.06s0-.05,0-.06Z"/>
      <polygon class="cls-2" points="1.78 10.14 1.78 10.14 1.77 10.16 1.78 10.14"/>
      <path class="cls-2" d="M8.7,12.74s.02.02.04.03c0,0-.01-.02-.04-.03Z"/>
      <path class="cls-2" d="M11.16,12.6h-.06s.04,0,.06,0Z"/>
      <path class="cls-2" d="M7.44,12.96s-.05-.01-.09,0c0,0,.01,0,.01,0,.02-.01.04-.02.08-.01Z"/>
      <polygon class="cls-2" points="6.12 13.09 6.15 13.1 6.19 13.09 6.12 13.09"/>
      <path class="cls-2" d="M13.37,5.58s.06,0,.09.02c-.05-.03.1-.16-.09-.02Z"/>
      <path class="cls-2" d="M18.28,3.66s.02.02.03.04v-.04s-.02,0-.03,0Z"/>
      <path class="cls-2" d="M7.44,13.51h-.21c.06.01.14,0,.21,0Z"/>
      <path class="cls-2" d="M5.62,6.25l.04.02s-.03-.02-.04-.02Z"/>
      <path class="cls-2" d="M6.61,13.6s-.08-.03-.12-.04c0,0-.02.01-.02.02l.15.02Z"/>
      <path class="cls-2" d="M13.46,5.59h0s0,0,0,0Z"/>
      <path class="cls-2" d="M14.48,4.65c-.16.12-.02.13-.02.2-.18.16-.13.01-.22.02-.1.11-.15.24-.24.31-.02,0-.04,0-.03-.03-.08.15-.38.28-.47.46-.02,0-.03,0-.03,0,.05.02.08.06.1.09-.07.05-.1.14-.17.11.05-.03.04-.05.05-.08l-.06.08c-.12-.02.09-.1.05-.15-.13.13-.27.31-.4.37-.07-.05.25-.21.06-.17l.2-.1c-.21-.02.11-.07-.09-.1-.25.14-.24.22-.49.36-.03.08.06.05.03.12-.29.3-.38,0-.57.27-.03.09,0,.2-.2.27v-.12c-.23.15-.05.2-.32.31.02-.06.16-.15.12-.13-.2.04-.08.12-.2.2l-.07-.05c-.24.17-.48.4-.75.58,0-.03.04-.08-.04-.07-.33.24-.76.42-1.13.53l-.1.12s-.07,0-.04-.03c-.15.03.01.05-.04.1-.08.04-.12,0-.08-.04-.21.15-.68.35-.9.23l.05-.02c-.15-.06-.21.12-.37-.04h.04c-.38-.23-.86-.5-1.08-.81-.12.04-.35-.33-.46-.24-.17-.23-.09-.2-.36-.49-.08-.07-.18-.03-.29-.1l.05-.06-.19-.05v-.13s-.12-.06-.12-.06c.03.03.06.09.04.1-.17-.09-.32-.34-.3-.37l-.39-.24s.09.02.15.05c-.24-.09.02-.09-.2-.18.01.03-.04.02-.06.03-.05-.11-.25-.27-.4-.37l.06-.02c-.25-.23-.57-.43-.88-.66.1.1.02.16-.08.1v-.09c-.08,0,.09.09-.07.06-.12-.09-.03-.13.05-.11l-.18-.09s.06,0,.09-.02c-.05-.01-.16-.09-.29-.14-.12-.06-.27-.1-.34-.05l-.02-.02c-.23.15-.33.38-.46.52-.06.12-.12.24-.19.39.06.04,0,.14,0,.25-.12.2-.26.42-.34.69-.03.2.04.07.05.17-.07,0-.14.26-.14.11-.09.32-.1.42-.14.84.03-.04.05-.09.07-.06,0,.08-.06.16-.09.15v-.02c0,.47-.35,1.05-.25,1.44v-.02s.04.39.04.39c-.02.18-.04-.11-.09.02.09.42-.03.66.04,1.01-.19.27.05.94-.01,1.32l.04-.03c.06.09-.01.12-.01.19.03-.01.03-.11.06-.05.08.39.13.8.24,1.22.13.4.23.91.84,1.22.23.08.32.02.41-.04.05-.05.1-.09.29-.06l-.09.09c.56-.17,1.18-.14,1.74-.29-.03.02-.03.05-.09.05.13.05.44-.04.44-.09.09,0,.03.04.08.06.12.02.29-.11.36-.06.01,0-.03.02-.05.03.08-.04.37-.03.28-.09.22.01.4-.07.58-.05.1-.09.37,0,.39-.11,0,.11.38.05.51-.01-.04.04.12.02.07.08.15-.02.29-.05.26-.11.3.11.56-.16.74,0,.45-.1.87-.19,1.28-.25,0,.11-.45.05-.43.17.39-.08.6-.2.99-.21.1,0-.05.05-.08.08.39-.08.76-.07,1.1-.16,0,.01-.04.03-.07.04.07-.01.16,0,.15-.05l-.07.02c-.12-.06.26-.18.26-.22-.1.16.35,0,.18.2.04-.01.1-.04.08-.08.07,0,.09.02.03.07.24-.05.15-.1.37-.12,0,.02-.04.04-.06.07.11-.06.21-.12.4-.12,0,.02.01.03-.04.04.32-.05.53-.19.89-.19-.09.12.12.02.15.11l.19-.05-.08-.04c.17-.02.3-.11.45-.09l-.12.05.31-.06h-.18c.16-.08-.03-.13.19-.13-.04.02.17-.02.26.02h0c.08-.04.16-.08.28-.08.04.02-.01.11.01.12.07-.09.39-.08.48-.18-.03.02-.03.07-.01.08l.06-.07c.08,0,.09.02.09.06.23-.02-.09-.1.19-.1-.02,0,0,.02-.05.03.29-.02.5-.12.81-.14.13.07-.27.07-.15.13.27.03.47-.33.5-.49.06-.2.1-.38.16-.55l-.03.06c-.11-.08.14-.24.12-.44,0,.05.06.07.05.06.08-.24.08-.5.11-.87l.02.05c.06-.13.09-.37.14-.52-.02-.05,0-.14-.06-.09.28-.44.06-.92.29-1.31,0,.05,0,.12.02.08l.03-.36c-.06.02-.04.04-.1.11-.03-.05-.04-.16-.02-.24.01.17.09.01.14-.05-.02,0-.03-.02-.05-.02.13-.17-.11-.05,0-.29l.03.02c0-.1-.03-.19,0-.29.07-.03.01.11.07.12.02-.15-.08-.3,0-.43,0,.06,0,.15,0,.22.1-.13.08-.15.11-.25h0s.07-.23.07-.23l-.03.06c-.14-.21.02-.37-.06-.63.07.25.06.05.13.08.03-.06.07-.15.08-.12-.04-.12.08-.19,0-.36.03,0,.02-.12.08-.09,0-.15-.05.03-.08.01-.05-.24.17-.53.1-.88-.01-.29-.09-.36-.1-.63.05-.09.08.08.08.08.05-.14.06-.25.04-.39.02.03.04,0,.07-.04,0-.11-.08-.08-.03-.22.03.03.07.06.09.12-.01-.13-.05-.27-.06-.4.04-.03.06.09.09.14-.01-.16-.02-.4-.09-.45l-.03.1c0-.06.06-.03.07.01.05.13-.03.19-.06.19v-.1c-.16.09,0,.39-.03.58l-.1-.09.07.21s-.09.06-.1-.03c-.06.13.03.13-.04.24-.01.01-.01,0-.02,0l.02.14s-.08.02-.05-.07c-.08.24.04.4-.05.48v-.02c0,.34.07.04.13.3l-.21.15.07.04s-.02.1-.05.09c.04.14.04-.02.08.06-.09.16-.03.46-.15.48.05.07.07-.15.08.03-.14.03,0,.21-.09.35-.06-.06,0-.19-.09-.05.1.11-.07.29-.06.42.09.02,0,.28,0,.5-.03-.02-.11.4-.17.59h-.01c.08.04.04.25.03.4-.05-.01-.07-.05-.08-.13l-.02.14s.03.08.03.18l-.06-.05c-.03.19.02.39-.07.62.06.02.21-.16.21.1-.04,0-.1,0-.1-.07,0,.02.02.08,0,.12l-.04-.11c-.04.11.04.07.02.15-.05-.01-.05.06-.08.04,0-.02.03-.07.02-.11-.03.1-.08.21-.12.24.03,0,.07.01.06.08-.03.19-.07.05-.11.16.03.05-.03.16.04.18-.01.05-.05.06-.07.08.02.1-.08.45.02.36v-.02s.01.02.01.02h0s0,0,0,0c0,.33-.17.65-.22.96h-.02c-.02.18-.09.4-.08.55-.02.05-.08.11-.1.08-.03.14,0,.17-.13.33.02-.14-.05.03.03-.14-.1.16-.14.17-.16.3-.02-.06-.07-.04-.16-.02.05,0,.07.02.1.03-.04.02-.16.03-.24.04l.03-.09c-.4-.04-.66.28-.98.16-.09.07.21,0,.13.09-.18.02-.38-.08-.43-.07-.25,0-.21.15-.46.16.04.02.08.1-.11.15-.18.01-.23-.09-.13-.13.04,0,.06,0,.06,0,.06-.02.13-.04.05-.06l-.02.03c-.09-.02-.33.02-.28-.04-.13.05-.05.06.05.06-.23-.01-.35.04-.59.04.04.01.08.04.04.05-.35,0-.14.07-.37.12-.14-.03.03-.11-.19-.05-.15-.01-.04-.07.01-.11-.21.08-.4,0-.52.01l.11-.04c-.07.02-.12.03-.18.03l.07.05c-.07,0-.12,0-.12-.02-.06.05.06.09-.07.16-.09-.02-.26.06-.3-.01.28,0-.04-.08.19-.11-.04.01-.1.02-.17.02-.01,0,0-.02.03-.02-.27-.04-.11.1-.39.13.03-.05-.07-.08-.12-.06.11-.01.06.07-.04.11-.18-.02-.19.05-.28.05h.11c-.03.05-.12.06-.24.08-.01-.03.11-.04.06-.05-.13.09-.32-.05-.5.02-.09-.02-.02-.08-.1-.09-.21.08-.24-.04-.46.03.07.05.08.04-.07.11l.36-.08-.23.11c.11-.01.23-.06.3-.06-.11.06-.1.04-.04.09-.16-.07-.3.08-.48.04v-.15c-.28-.04-.47.12-.82.12l.11.02c-.04.06-.21.03-.32.06,0-.05-.07-.06-.12-.09,0,.04-.25.02-.27.12l-.16-.05c-.28,0-.3.17-.57.18.08-.06-.05-.08.13-.14-.09,0-.17,0-.17.04-.05-.03-.24.09-.33.05-.04.03-.04.08-.14.08-.01,0,0-.02,0-.02,0,.02-.15.05-.06.09-.29-.13-.76.09-1.02-.02-.19.04-.42.08-.6.1,0-.02,0-.02.03-.02-.25-.02-.13.16-.42.14-.15-.06.14-.06.05-.08-.06-.16-.33.06-.53-.02h.04c-.15-.05-.34.09-.57.1,0,0,0-.02,0-.02-.15.1-.45.16-.67.21.06-.07.1-.05.05-.1-.1.02.04.1-.16.14-.07-.03-.22-.04-.24-.1l.19-.03c-.11-.08-.24.03-.34.03v-.04c-.21.04-.21.13-.43-.02v.04c-.18-.03-.05-.12-.2-.2l.06-.09c-.08-.07-.26-.28-.34-.46.1.08.22.28.33.37-.05-.08-.15-.31-.21-.35.02.04.06.08.07.12-.12-.09-.22-.25-.27-.46.18,0-.07-.57.06-.75-.12-.37-.07-.76-.09-1.21-.14.17-.01-.13-.16-.1-.02-.11-.01-.15,0-.16l.09-.32c.04-.08.04.1.07.09,0-.23.06-.1.11-.25-.06.03-.08-.08-.05-.21l-.07.18c-.07-.32.13-.27.07-.6l.04.1c-.02-.17.04-.6-.06-.78.02-.03.07-.06.07.01.06-.39,0-.89.13-1.18l.03.04c0-.07-.04-.14.02-.22.01,0,.03.04.04,0,0-.04-.02-.21.03-.29l.02.09c.15-.35.06-.59.15-.9.1.04.25-.22.32-.35h.01c.09-.16.19-.4.2-.47.01-.08.04-.24.14-.18,0,.06.17.19.36.34.19.14.39.31.53.47-.04-.06.06-.06.13-.02.06.08.26.12.18.18l-.03-.02c0,.12.17.23.29.34l.1-.08c.19.41.88.65.95.93.1.04.2.12.29.16l-.05.05c.2.19.31.29.59.49h-.09c.15.12.32-.01.47.09l-.02.12c.27.21.51.49.87.59-.01.01-.04.03-.09,0,.07.05.22.14.35.21.15.06.3.08.27,0-.01.13.44.06.62-.03l-.02.07c.16-.11.15-.15.36-.22.05,0,.06.04-.01.04.18-.02.11-.11.33-.14l-.06.07c.17-.06.15-.08.22-.16.09-.07.32-.12.37-.08,0-.05.07-.13.17-.16.02.01,0,.05-.02.06.29-.1.35-.28.56-.32.02.02.03.02.05.02-.21.12-.38.21-.36.19.03.06.21-.02.11.13.11-.12.29-.34.46-.41.01,0,.02,0,.03,0v.02s.06-.04.08-.07c.06-.02.09-.03.14-.06.05.03.2-.09.28-.14-.04-.06.07-.11-.06-.1.02,0-.01.02-.06.05-.01,0-.02.02-.03.03h0c-.05.03-.12.07-.2.12.05-.07.09-.14.2-.16.02-.07.04-.13.05-.17.16.01.4-.08.46-.05.22-.19.55-.4.62-.61.06-.06.1-.02.14-.02-.03.04-.08.07-.09.1.12-.12.39-.29.37-.38.19-.08-.05.13.18-.04l-.02.04c.54-.19.61-.71,1.22-.92-.04.02-.06.02-.08.02.62-.35,1.11-.93,1.73-1.27.17-.1.15-.16.21-.28l.08.03.1-.2c.18-.24.51-.19.71-.52h-.07c.11-.09.29-.31.32-.25,0-.02,0-.07.05-.08l.03.03.2-.27c.2-.15.08.14.35-.1.09-.11.21-.35.15-.34-.04.04-.12.08-.15.05l.08-.1c-.06-.1-.08-.25-.35-.1l-.11.2h-.09s.13-.12.13-.12c-.11.03-.13.11-.16.18-.03-.01-.07,0-.11.01l-.08.22s0-.13-.11-.05c-.04.1.14.01.04.15-.11.03-.12-.02-.18.09-.03-.01-.03-.04,0-.08-.05.1-.2.2-.2.28-.12.02-.26.25-.32.16,0,.04-.08.19-.16.25.05-.22-.28.23-.34.09-.02.18-.33.34-.47.54,0-.02.01-.05.03-.05-.11.08-.16.07-.24.11.05.09-.1.23-.15.35-.19.02,0-.15-.09-.19.06.06-.17.23-.09.25-.13.03-.1.04-.2.02.06.11-.08.09-.11.21-.18.06-.11-.06-.24.08-.1.03.02-.11.02-.11ZM10.75,7.46h0s.06-.04.08-.05c-.02.01-.04.03-.08.05ZM10.41,7.66s.09-.05.15-.08c.02.01.02.04-.01.06.01-.02-.08,0-.14.02ZM11.38,7.65s-.07.04-.09.03c.02-.02.05-.04.09-.07h0s0,.02,0,.03Z"/>
      <path class="cls-2" d="M11.43,7.51l.02-.02s-.03,0-.04,0v.03s.02-.02.02-.02Z"/>
      <path class="cls-2" d="M17.09,9.87h0s0,0,.01,0c0,0-.01,0-.01,0Z"/>
      <polygon class="cls-2" points="5.98 6.51 5.97 6.52 6.01 6.53 5.98 6.51"/>
      <path class="cls-2" d="M17.7,7.77s.01-.01.02-.03c0,0-.01.01-.02.03Z"/>
      <path class="cls-2" d="M17.86,6.85l.04-.13c-.02.05-.04.1-.04.13Z"/>
      <path class="cls-2" d="M18,6.14s-.02-.01-.03-.02h0s.03.02.03.02Z"/>
      <path class="cls-2" d="M11.25,13.06h-.03c-.06.03-.02.02.03,0Z"/>
      <path class="cls-2" d="M14.63,12.49s-.07.03-.1.05c.06,0,.11,0,.1-.05Z"/>
      <polygon class="cls-2" points="7.46 13.51 7.47 13.51 7.44 13.51 7.46 13.51"/>
      <path class="cls-2" d="M14.37,12.56c.06,0,.11,0,.16-.02-.05,0-.11,0-.16.02Z"/>
      <polygon class="cls-2" points="18.36 3.01 18.37 2.97 18.36 2.97 18.36 3.01"/>
      <path class="cls-2" d="M18.36,2.97v-.04s0,.03,0,.04Z"/>
      <path class="cls-2" d="M18.33,2.84l.02.08s0-.07-.02-.08Z"/>
      <path class="cls-2" d="M18.27,3.97h.02s-.01,0-.02,0Z"/>
      <path class="cls-2" d="M18.24,4.26c.01-.07.07-.17.07-.27h-.02s-.08.2-.05.27Z"/>
      <path class="cls-2" d="M17.79,5.43l.05-.24s-.08.09-.07-.02c-.12.29.07-.05.02.26Z"/>
      <path class="cls-2" d="M17.65,6.17c0-.13-.04,0-.05-.01.01.09.02.11.05.01Z"/>
      <path class="cls-2" d="M16.64,11.49l-.06-.03c-.02.09.02,0,.06.03Z"/>
      <polygon class="cls-2" points="16.11 12.33 16.21 12.35 16.25 12.29 16.11 12.33"/>
      <polygon class="cls-2" points="15.43 11.98 15.47 11.96 15.31 12.01 15.43 11.98"/>
      <path class="cls-2" d="M6.35,13l.04.08c.07-.02.07-.11-.04-.08Z"/>
      <path class="cls-2" d="M2.6,13.36s-.04-.12-.11-.15c.04.06.07.13.11.15Z"/>
      <polygon class="cls-2" points="4.77 6.32 4.7 6.29 4.83 6.37 4.77 6.32"/>
    </g>
    <g>
      <path class="cls-2" d="M17.87,1.32s-.06-.04-.07,0l.06.07.02-.08Z"/>
      <path class="cls-2" d="M17.57,1.52c0,.07.03.16.11.17-.03-.09,0-.08-.05-.18.02-.05.06-.06.09-.04,0-.03.05-.06.02-.1-.09.02-.12.09-.13.18-.03,0-.03-.02-.04-.03Z"/>
      <path class="cls-2" d="M14.08,4.46h.03s-.02,0-.03,0Z"/>
      <path class="cls-2" d="M11.76,6.09s.02-.03.02-.03c-.01.02-.02.03-.02.03Z"/>
      <path class="cls-2" d="M11.31,6.29s.02,0,.03-.01c-.01,0-.02,0-.03.01Z"/>
      <path class="cls-2" d="M14.08,4.46l-.08.03s.04,0,.08-.03Z"/>
      <path class="cls-2" d="M17.35,2.16s.01-.03.01-.05l-.02.04h0Z"/>
      <path class="cls-2" d="M15.04,3.65h.02s0-.04,0-.05v.05Z"/>
      <path class="cls-2" d="M15.79,3.06s.02.07.03.1c0-.03,0-.05,0-.07,0-.01-.02-.02-.04-.03Z"/>
      <path class="cls-2" d="M16.99,2.14v-.03s0,.03,0,.03Z"/>
      <path class="cls-2" d="M14.48,4.05s-.02-.01-.02-.01c0,0,.01.01.02.01Z"/>
      <path class="cls-2" d="M16.58,1.03s0,.01,0,.01c0,0,0-.01,0-.01Z"/>
      <polygon class="cls-2" points="17.72 1.26 17.71 1.27 17.71 1.31 17.72 1.26"/>
      <path class="cls-2" d="M10.52,6.68h0s0-.01,0,0Z"/>
      <path class="cls-2" d="M4.11,4.11c.02.11-.16-.04-.11.1.01-.03.16,0,.11-.1Z"/>
      <path class="cls-2" d="M17.32,2.17l-.03.03s.02-.02.03-.03Z"/>
      <polygon class="cls-2" points="4 4.21 4 4.21 4.01 4.22 4 4.21"/>
      <path class="cls-2" d="M8.84,7.48s.01.02.02.03c0,0,0-.02-.02-.03Z"/>
      <path class="cls-2" d="M10.15,7.07h-.04s.03,0,.04,0Z"/>
      <path class="cls-2" d="M8.16,7.42s-.02-.02-.04-.03h0s.03,0,.04.03Z"/>
      <polygon class="cls-2" points="7.58 6.96 7.58 6.98 7.6 7 7.58 6.96"/>
      <path class="cls-2" d="M14.09,1.27s.03.04.04.06c-.02-.05.1-.08-.04-.06Z"/>
      <path class="cls-2" d="M17.31,2.13s.01.03,0,.04l.02-.02s-.01-.02-.02-.01Z"/>
      <path class="cls-2" d="M7.89,7.91l-.12-.07s.08.05.12.07Z"/>
      <path class="cls-2" d="M8.18,1.87h.03s-.02,0-.03,0Z"/>
      <path class="cls-2" d="M7.35,7.52s.01-.05,0-.07c0,0-.01,0-.02,0,.01.03.01.05.02.07Z"/>
      <path class="cls-2" d="M14.14,1.33h0s0,0,0,0Z"/>
      <path class="cls-2" d="M14.98,1.1c-.12,0-.05.09-.07.15-.15.04-.07-.06-.13-.11-.09.03-.16.12-.23.12,0-.01-.02-.02,0-.04-.09.08-.29.02-.4.12,0,0-.01-.01-.02-.02.02.04.03.09.03.13-.06,0-.1.07-.12,0,.03,0,.04-.03.05-.05l-.06.03c-.06-.08.08-.04.07-.1-.11.04-.24.12-.33.1-.02-.08.2-.04.08-.11l.14.02c-.11-.13.08,0-.02-.13-.18-.01-.2.06-.38.05-.04.05.02.07-.02.12-.25.1-.21-.2-.39-.07-.04.06-.05.17-.19.12l.04-.1c-.17,0-.09.14-.27.09.03-.04.13-.04.11-.05-.12-.07-.08.06-.17.07l-.02-.08c-.18.03-.38.1-.58.13,0-.03.04-.06,0-.08-.25.06-.55.03-.8,0l-.09.08s-.04-.03-.02-.05c-.1-.02,0,.05-.04.08-.05.01-.08-.04-.04-.06-.16.08-.47.18-.66.12l.03-.03c-.14-.01-.14.17-.28.11l.02-.02c-.31,0-.63.11-.88.03-.03.11-.31,0-.31.14-.18-.05-.14-.08-.39-.09-.07,0-.08.1-.16.13v-.08s-.11.1-.11.1l-.07-.08-.07.03s.07.02.07.05c-.11.05-.3,0-.31-.04l-.27.11s.05-.05.08-.08c-.13.11-.04-.07-.16.02.02.01,0,.05,0,.06-.08-.03-.23,0-.34.04v-.06c-.2.02-.42.12-.65.17.09,0,.09.1.02.12l-.05-.07c-.03.06.08.01,0,.09-.09,0-.08-.08-.04-.11l-.1.05s0-.04,0-.07c-.03.06-.21-.04-.24.07v-.02c-.24.06-.34.12-.52.18.02.07-.06.08-.1.15-.14.02-.31.02-.47.08-.1.07-.01.07-.05.13-.03-.06-.19,0-.12-.07-.19.09-.24.11-.46.26.04.01.07.01.06.04-.04.03-.11.02-.12-.01h0c-.22.19-.72.14-.86.46h0c-.04.06-.14.19-.15.31-.07.16,0-.11-.09,0-.03.14-.01.25-.02.35.05.1.09.2.15.27.06.09.12.15.19.18,0,.27.46.37.56.6l.02-.04c.07,0,.04.06.07.1.02-.03-.02-.07.02-.07.41.25.75.65,1.12.98.14.12.22-.12.34.1l-.1.03c.35.14.58.45.91.6-.03,0-.04.02-.07,0,.02.09.21.17.24.14.04.04-.02.04,0,.08.03.07.19.06.18.13,0,.01-.03,0-.04,0,.05,0,.16.15.17.07.08.11.19.14.23.24.06-.05.15.26.26.17-.04.11.18.21.29.2-.04.02.06.07,0,.09.1.05.2.06.2,0,.15.21.42.02.51.2.35-.02.66-.14.9-.27.04.11-.29.12-.25.22.28-.13.36-.28.6-.36.07-.01-.01.06-.02.09.21-.15.44-.22.6-.38,0,0-.01.03-.03.05.04-.03.1-.04.07-.08l-.03.03c-.1-.03.07-.22.06-.26.01.16.2-.08.2.14.02-.02.04-.06.01-.09.04-.01.06,0,.05.05.12-.11.04-.12.16-.2.01.02,0,.04,0,.08.03-.08.07-.16.18-.2,0,.02.02.03,0,.04.17-.12.22-.29.43-.38,0,.13.08-.01.14.06l.08-.09h-.07c.09-.07.13-.18.22-.2l-.04.08.15-.13-.11.03c.06-.1-.08-.09.05-.15-.02.02.09-.06.16-.04h0c.03-.05.05-.11.13-.13.03.01.05.09.07.1,0-.09.19-.16.19-.26,0,.03.02.07.03.07v-.08s.06,0,.08.03c.13-.07-.11-.07.06-.13,0,.01,0,.02-.01.04.16-.08.25-.23.39-.3.09.05-.1.1,0,.13.18-.15.32-.37.51-.48l-.04.02c-.05-.12.17-.05.22-.16-.02.02.02.08.01.06.13-.07.23-.21.39-.38v.04c.09-.03.2-.13.28-.17,0-.04.05-.07,0-.09.35-.03.39-.43.7-.45-.03.02-.04.07-.02.05l.16-.16s-.04-.01-.11-.02c0-.04.04-.1.08-.14-.06.09.06.07.11.07-.02,0-.02-.03-.03-.05.16.01-.05-.1.12-.15v.03c.05-.05.07-.11.13-.15.06.04-.03.06,0,.11.07-.06.07-.21.17-.21-.02.04-.06.07-.08.11.12,0,.12-.02.18-.05h0s.14-.06.14-.06h-.04c-.02-.2.16-.16.21-.35-.05.18.02.06.06.13.04,0,.11-.03.11,0,.02-.09.13-.04.15-.18.02.02.06-.05.09,0,.06-.08-.05-.02-.06-.05.06-.16.33-.16.4-.39.1-.16.06-.24.14-.39.07-.02.03.09.03.09.09-.04.13-.1.17-.18,0,.03.03.03.07.02.04-.06-.04-.09.05-.14.01.03.03.07.03.12.04-.08.05-.17.09-.25.05,0,.02.08.02.12.04-.09.12-.22.08-.29l-.05.04s.06.02.05.05c0,.1-.09.08-.11.07l.02-.06c-.15-.04-.13.21-.22.3l-.05-.11v.15c-.05,0-.11-.02-.08-.08-.09.03-.02.08-.11.1-.01,0-.01,0-.01-.01l-.03.08s-.06-.04-.02-.07c-.14.07-.11.23-.21.21h0c-.12.16.04.05,0,.23l-.21-.07.04.07s-.05.04-.07,0c-.02.09.03.02.03.08-.12.02-.19.21-.29.14,0,.07.1-.03.05.07-.11-.08-.08.1-.2.11-.02-.07.07-.1-.04-.09.03.13-.16.1-.21.16.05.07-.11.14-.2.24-.01-.03-.23.11-.35.16h0c.04.07-.08.14-.14.21-.03-.05-.03-.07,0-.12l-.07.05s-.01.07-.05.11l-.02-.07c-.09.07-.14.21-.29.26.03.06.2.07.1.2-.03-.02-.07-.07-.04-.1,0,.01-.02.05-.05.06l.02-.08c-.07.02,0,.06-.05.09-.03-.04-.05,0-.07-.04,0-.01.05-.01.06-.04-.06.03-.13.05-.18.04.02.02.04.05,0,.09-.09.07-.07-.02-.14,0,0,.04-.08.06-.04.12-.03.02-.05,0-.08-.01-.03.06-.22.18-.12.2h.02s0,0,0,0h0s0,0,0,0c-.11.18-.36.22-.5.36v-.02c-.09.09-.22.17-.25.26-.03.02-.09.01-.1-.02-.06.07-.05.1-.18.14.05-.09-.05-.01.06-.08-.11.05-.15.04-.21.16,0-.08-.12-.01-.15.04h.09s-.09.06-.14.09l-.02-.09c-.25.06-.25.39-.5.36-.02.08.13-.04.12.05-.1.05-.26.02-.29.04-.15.05-.05.18-.19.24.03.01.09.07.01.16-.1.05-.18-.03-.14-.08.02-.02.04-.02.04,0,.02-.03.05-.07,0-.07v.03c-.06,0-.18.09-.18.03-.05.07,0,.06.06.04-.14.04-.18.12-.32.18.03,0,.07.02.05.03-.2.09-.05.1-.16.19-.09,0-.03-.11-.14,0-.09.02-.06-.06-.04-.1-.08.12-.23.1-.3.13l.05-.06s-.06.05-.09.07l.07.03s-.07.03-.08,0c-.01.06.08.07.04.16-.06,0-.12.12-.18.06.16-.07-.06-.06.06-.14-.02.02-.05.04-.09.05,0,0,0-.02,0-.03-.17.03-.02.12-.16.2,0-.05-.08-.05-.1-.03.06-.03.07.05.03.11-.11.03-.09.08-.14.11l.06-.02s-.05.07-.11.12c-.02-.03.05-.05.02-.05-.04.11-.2.02-.28.12-.06,0-.04-.07-.09-.07-.09.11-.15,0-.25.11.06.04.06.02,0,.12l.18-.13-.09.14c.06-.03.11-.1.15-.1-.04.07-.04.06.01.09-.12-.04-.14.13-.27.12l-.06-.14c-.16,0-.22.17-.41.18h.06c-.01.08-.11.04-.17.07,0-.05-.04-.06-.06-.09,0,.04-.13,0-.15.09l-.07-.07c-.13-.05-.2.1-.34.03.06-.03.01-.09.12-.09-.05-.02-.08-.04-.1,0-.01-.04-.16,0-.18-.06-.03,0-.06.05-.11.02,0-.01.01-.02.01-.02-.01.02-.1-.02-.08.06-.04-.12-.15-.15-.19-.2-.07-.1-.17-.17-.18-.27-.11-.08-.23-.17-.31-.23.02,0,.02-.02.03,0-.09-.13-.16.05-.26-.1-.02-.12.1.03.08-.03.08-.14-.18-.12-.21-.26h.03c-.04-.09-.21-.08-.32-.18,0,0,.01,0,.02-.02-.13,0-.29-.09-.42-.16.07-.02.07.01.09-.06-.06-.03-.05.09-.16.03-.01-.05-.06-.13-.03-.19l.1.07c0-.11-.12-.09-.16-.14l.03-.03c-.15-.1-.21-.02-.36-.14v.04c-.14.01-.04-.1-.17-.1l.03-.1c-.07-.02-.25-.07-.36-.13.1-.02.24.04.34.06-.05-.04-.19-.14-.25-.12.03,0,.07.01.08.04-.11.01-.23-.03-.34-.11.13-.14-.26-.26-.24-.43-.24-.09-.36-.32-.58-.49-.02.18-.06-.05-.15.08-.05-.04-.07-.05-.07-.07-.03-.07-.06-.14-.05-.17.02-.04.05,0,.07-.02-.02-.04.04-.05.06-.09-.05.02-.07.03-.07.01h0s-.02,0-.02,0c-.02,0-.03.02-.05.04-.02,0-.03-.01-.03-.02,0-.05.14-.02.09-.07.01.01.03.02.04.03-.06.02.1-.11.12-.26.02,0,.06.03.04.06.18-.1.38-.37.59-.37v.04s.04-.1.11-.08c0,.02,0,.04.02.04.02-.02.09-.11.15-.11l-.03.06c.24-.04.3-.23.49-.31.03.1.22.08.32.07v.02c.27-.07.43-.22.67-.33.18.08.55-.07.81-.06-.04-.01-.01-.09.03-.1.06.01.15-.11.16,0h-.02c.06.09.18.04.28.03v-.13c.28.14.64-.18.81-.04.06-.04.13-.05.19-.09v.07c.18,0,.27,0,.47-.06l-.04.06c.12-.01.12-.22.23-.24l.05.1c.21-.03.43.04.62-.08,0,.02,0,.05-.04.05.1,0,.39.03.34-.11.01.09.22-.01.32-.07v.07c.08-.1.08-.12.21-.16.03,0,.03.05-.01.04.11.03.08-.07.21-.05l-.04.05c.11,0,.1-.03.15-.08.07-.03.21,0,.23.06.01-.04.07-.1.13-.08.01.02-.01.04-.02.05.19.03.26-.1.39-.05,0,.02.01.03.02.04-.14.01-.26.02-.25.01,0,.06.12.07.04.16.09-.06.24-.17.36-.15,0,0,.01.01.02.02h-.01s.05,0,.07,0c.04,0,.06.01.1.01.02.05.14.02.19.02-.01-.07.07-.06,0-.12,0,0-.01,0-.05.02,0,0-.02,0-.02,0h0s-.09,0-.14,0c.04-.04.09-.07.16-.04.03-.05.06-.1.07-.12.09.09.24.13.27.19.17-.05.42-.06.52-.2.05-.02.06.03.08.05-.03.02-.06.02-.08.04.1-.04.3-.03.32-.13.13.03-.07.09.11.06l-.02.03c.35.12.54-.27.94-.11-.03,0-.04-.01-.05-.03.44.05.89-.14,1.33-.05.12.02.13-.04.2-.09l.03.07.12-.1c.17-.08.33.15.55.01l-.03-.05c.08,0,.26-.05.25,0,0-.01.02-.06.06-.03v.04s.2-.09.2-.09c.16.01,0,.16.22.14.08-.02.23-.14.19-.16-.03,0-.09-.01-.1-.05l.07-.03c0-.12.04-.24-.15-.3l-.12.09-.05-.05.11-.02c-.07-.05-.1,0-.14.04-.01-.03-.03-.05-.06-.06l-.12.12s.05-.1-.04-.11c-.05.06.07.1-.03.14-.07-.05-.05-.09-.12-.04-.01-.03,0-.05.03-.07-.06.04-.17.03-.2.1-.07-.06-.22.04-.22-.07-.02.03-.11.1-.17.11.1-.14-.23.01-.21-.13-.07.13-.29.08-.43.16,0-.01.02-.03.03-.03-.08,0-.11-.04-.16-.05,0,.1-.13.13-.19.2-.11-.09.05-.12.01-.21.01.08-.17.09-.13.16-.08-.05-.07-.02-.11-.1,0,.12-.07.03-.13.11-.12-.05-.04-.11-.16-.07-.06-.03.04-.08.04-.08ZM12.09,1.52h0s.05,0,.06,0c-.01,0-.03,0-.06,0ZM11.85,1.54s.07,0,.11,0c.01.02,0,.05-.02.05.01-.02-.05-.03-.08-.04ZM12.4,1.99s-.05,0-.06-.01c.02,0,.04,0,.07-.01h0s0,.02-.01.03Z"/>
      <path class="cls-2" d="M12.46,1.89s0,0,.02,0h-.02s-.01,0-.01,0h.02Z"/>
      <polygon class="cls-2" points="14.12 4.45 14.11 4.45 14.13 4.45 14.12 4.45"/>
      <polygon class="cls-2" points="8.45 1.79 8.45 1.81 8.47 1.79 8.45 1.79"/>
      <path class="cls-2" d="M15.34,3.83s.01,0,.02,0c0,0-.01,0-.02,0Z"/>
      <path class="cls-2" d="M15.81,3.49l.08-.03s-.06.02-.08.03Z"/>
      <path class="cls-2" d="M16.19,3.23s0-.02-.01-.03h0s.01.03.01.03Z"/>
      <path class="cls-2" d="M10.41,7.46h-.01s0,.03.01,0Z"/>
      <path class="cls-2" d="M12.12,6.17s-.02.05-.04.07c.03-.02.06-.03.04-.07Z"/>
      <polygon class="cls-2" points="7.91 7.91 7.91 7.91 7.89 7.91 7.91 7.91"/>
      <path class="cls-2" d="M12,6.29s.06-.03.08-.06c-.03.01-.06.03-.08.06Z"/>
      <polygon class="cls-2" points="17.61 1.84 17.62 1.82 17.62 1.81 17.61 1.84"/>
      <path class="cls-2" d="M17.62,1.81v-.03s0,.02,0,.03Z"/>
      <path class="cls-2" d="M17.64,1.73v.05s0-.03,0-.05Z"/>
      <path class="cls-2" d="M17.19,2.29v.02s0-.01,0-.02Z"/>
      <path class="cls-2" d="M17.07,2.43s.12-.04.15-.1v-.02s-.15.06-.15.12Z"/>
      <path class="cls-2" d="M16.31,2.73l.13-.08s-.09,0-.04-.06c-.19.06.07.02-.08.14Z"/>
      <path class="cls-2" d="M15.93,3c.05-.06-.03-.03-.03-.04-.02.05-.03.06.03.04Z"/>
      <path class="cls-2" d="M13.24,5.04l-.03-.06s.01.02.03.06Z"/>
      <polygon class="cls-2" points="12.91 5.69 12.98 5.68 12.97 5.62 12.91 5.69"/>
      <polygon class="cls-2" points="12.33 5.54 12.35 5.51 12.28 5.59 12.33 5.54"/>
      <path class="cls-2" d="M7.73,7.03l-.04.07s.11-.03.04-.07Z"/>
      <path class="cls-2" d="M5.75,5.52s-.04-.11-.1-.1c.04.04.07.1.1.1Z"/>
      <polygon class="cls-2" points="7.91 2.52 7.87 2.56 7.96 2.52 7.91 2.52"/>
    </g>
    <g>
      <path class="cls-2" d="M18.29.78s.03-.07-.05-.07l-.07.07h.12Z"/>
      <path class="cls-2" d="M17.8.56c-.1.03-.2.11-.14.18.09-.08.11-.04.21-.13.08,0,.13.04.12.07.03-.02.12.03.16-.01-.09-.08-.22-.1-.36-.05-.03-.02,0-.04,0-.05Z"/>
      <path class="cls-2" d="M10.07,1.14h.05s-.03,0-.05,0Z"/>
      <path class="cls-2" d="M5.32,2s.05-.03.05-.03c-.03.02-.06.03-.05.03Z"/>
      <path class="cls-2" d="M4.5,2.19s.03,0,.05-.01c-.02,0-.04,0-.05.01Z"/>
      <path class="cls-2" d="M10.07,1.14h-.13s.07,0,.13,0Z"/>
      <path class="cls-2" d="M16.77.85s.05-.02.06-.03l-.06.02h0Z"/>
      <path class="cls-2" d="M12.18.9h.04s.02-.02.03-.04l-.07.04Z"/>
      <path class="cls-2" d="M13.8.8s-.05.07-.06.1c.02-.03.05-.05.08-.05,0-.01,0-.03-.02-.05Z"/>
      <path class="cls-2" d="M16.36.64l.04-.02s-.03.01-.04.02Z"/>
      <path class="cls-2" d="M11.01.97s-.01-.02-.02-.02c0,0,0,.02.02.02Z"/>
      <path class="cls-2" d="M18.41,2.42h.01s-.01-.01-.01,0Z"/>
      <polygon class="cls-2" points="18.34 .61 18.36 .62 18.38 .59 18.34 .61"/>
      <path class="cls-2" d="M3.06,2.86h0s.01-.02,0,0Z"/>
      <path class="cls-2" d="M3.96,14.61c-.16-.05.25-.11,0-.15.03.02-.2.13,0,.15Z"/>
      <path class="cls-2" d="M16.73.85h-.06s.05,0,.06,0Z"/>
      <path class="cls-2" d="M3.96,14.46h0s-.02,0-.02,0c.01,0,.02,0,.03,0Z"/>
      <path class="cls-2" d="M1.13,5.91s.03-.01.04-.03c0,0-.02,0-.04.03Z"/>
      <path class="cls-2" d="M2.48,3.6l-.05.04s.04-.03.05-.04Z"/>
      <path class="cls-2" d="M.95,7.27s-.02.05-.02.09h.01s0-.06,0-.09Z"/>
      <polygon class="cls-2" points=".82 8.68 .84 8.65 .83 8.61 .82 8.68"/>
      <path class="cls-2" d="M18.16,6.6s.05-.04.07-.05c-.05.01-.04-.19-.07.05Z"/>
      <path class="cls-2" d="M16.76.81s-.01.03-.03.04h.04s0-.03,0-.04Z"/>
      <path class="cls-2" d="M1.49,7.4l-.04.21c.01-.06.02-.14.04-.21Z"/>
      <path class="cls-2" d="M13.24,13.05h.05s-.04,0-.05,0Z"/>
      <path class="cls-2" d="M1.4,8.26s-.05.08-.06.12c0,0,0,.02.02.03l.04-.15Z"/>
      <path class="cls-2" d="M18.23,6.54h0s0,0,0,0Z"/>
      <path class="cls-2" d="M18.23,5.09c-.02.21.08.11.13.15,0,.25-.08.11-.13.19,0,.15.08.28.06.4-.02,0-.02.03-.04,0,.05.17-.06.49,0,.69-.01.01-.02.02-.03.02.05-.02.1-.02.13-.01-.01.09.03.18-.03.21,0-.06-.01-.07-.03-.09v.1c-.09.08,0-.14-.06-.15,0,.19.04.43,0,.57-.09.02.02-.35-.08-.16l.06-.22c-.16.15.03-.14-.14,0-.07.29,0,.34-.07.63.04.07.07-.01.11.06.02.43-.26.3-.2.62.04.09.14.14.05.35l-.08-.09c-.06.28.11.19,0,.48-.03-.06,0-.23-.01-.19-.11.18.03.15,0,.3l-.09.02c-.04.31-.05.65-.1.99-.02-.02-.03-.09-.08-.01-.05.43-.21.89-.38,1.25l.02.17s-.05.05-.05.01c-.08.14.04.02.04.1-.03.09-.08.09-.08.03-.03.28-.2.78-.44.9l.02-.05c-.15.12-.06.27-.26.32l.03-.03c-.39.2-.95.32-1.34.26-.06.11-.51.01-.52.16-.29-.04-.21-.08-.62-.1-.11,0-.16.1-.29.12v-.08s-.19.09-.19.09l-.1-.09-.13.02c.05,0,.11.03.1.05-.2.04-.48-.04-.49-.08l-.47.07s.09-.04.15-.06c-.25.08-.05-.08-.28,0,.03.02-.02.05-.02.06-.12-.04-.38-.04-.57-.02l.04-.05c-.35,0-.74.04-1.14.06.14.02.12.11,0,.13l-.05-.08c-.07.05.12.02-.03.09-.15,0-.11-.09-.02-.12l-.18.04s.03-.04.04-.07c-.07.06-.32-.06-.42.04v-.02c-.41.04-.59.09-.91.14,0,.07-.12.07-.21.14-.24.01-.51,0-.79.04-.19.07-.05.07-.13.12-.02-.06-.3-.01-.17-.08-.33.06-.43.08-.84.2.05.02.1.02.08.05-.08.02-.18,0-.17-.03h.02c-.46.16-1.13-.01-1.48.17h.02s-.38.12-.38.12c-.18.01.1-.06-.04-.08-.41.16-.67.07-1.01.18-.14-.08-.38-.06-.63-.02-.12.01-.26.03-.36.03-.09-.01-.18-.03-.24-.06v.04c-.08.04-.07-.04-.11-.07,0,.04.06.07,0,.07-.65-.15-.9-1.05-1-1.79-.05-.28-.26-.12-.21-.5l.1.09c-.19-.57-.13-1.21-.21-1.79.02.04.04.04.05.09.05-.12,0-.46-.05-.46,0-.09.04-.02.07-.08.04-.12-.07-.32,0-.38.01-.01.02.04.02.06-.03-.08.02-.38-.05-.3.04-.22,0-.43.04-.6-.07-.12.07-.38-.04-.42.11.03.13-.38.09-.52.03.05.05-.11.09-.05.02-.16.02-.3-.04-.28.18-.26,0-.6.21-.71.05-.46.16-.89.32-1.28.09.06-.18.43-.05.46.1-.38.12-.63.34-.96.07-.08.01.07.01.11.16-.36.43-.62.61-.91,0,0,0,.04-.03.08.04-.06.12-.1.08-.13l-.04.06c-.13.03.09-.3.07-.34,0,.18.29-.2.27.06.03-.04.06-.09.03-.11.06-.04.09-.03.06.04.17-.18.07-.16.26-.29.01.02-.02.05-.02.09.06-.1.13-.21.31-.29,0,.02.03.02-.02.05.27-.17.44-.37.8-.46-.06.14.13-.01.18.07l.17-.1h-.09c.16-.08.29-.18.44-.2l-.11.08.3-.12-.19.02c.15-.1-.05-.11.17-.15-.04.02.17-.05.27-.02h0c.07-.05.15-.11.28-.12.04.02,0,.11.03.12.06-.1.39-.12.47-.23-.03.03-.02.08,0,.08l.05-.08c.08,0,.1,0,.09.05.24-.05-.1-.1.19-.12-.02.01,0,.02-.05.04.29-.04.54-.15.81-.17.09.08-.22.07-.12.13.37-.09.76-.25,1.14-.28h-.07c.03-.14.28.02.46-.06-.04.02-.05.08-.04.06.26,0,.51-.1.89-.18l-.04.04c.15.02.4-.02.56-.02.04-.04.14-.04.08-.08.52.15.95-.18,1.4-.05-.05,0-.12.04-.08.04l.38-.06c-.03-.06-.05-.03-.13-.07.05-.04.15-.07.25-.08-.17.05,0,.09.08.12-.01-.02.01-.04,0-.06.2.09.03-.12.3-.07v.03c.09-.02.18-.07.29-.06.05.06-.11.04-.11.09.15-.01.3-.14.44-.09-.06.02-.16.03-.22.05.16.07.17.05.29.05h-.01s.26.02.26.02l-.07-.02c.18-.18.39-.05.64-.18-.24.12-.04.06-.05.14.07.02.17.03.14.06.12-.07.21.04.37-.06,0,.02.13,0,.11.06.16-.03-.04-.04-.03-.07.23-.1.6.07.94-.11.3-.1.33-.19.6-.29.1.02-.06.1-.06.1.16,0,.27-.02.41-.08-.02.03,0,.04.06.06.11-.03.06-.1.22-.09-.02.03-.05.08-.1.12.13-.04.25-.11.39-.14.04.04-.08.07-.12.11.15-.04.39-.08.44-.14l-.1-.02c.06,0,.03.06,0,.07-.13.06-.19,0-.2-.03l.1-.03c-.12-.13-.4.07-.59.1l.07-.12-.19.12s-.09-.07,0-.1c-.15-.02-.12.06-.25.03-.02,0-.01-.01,0-.02l-.13.06s-.04-.07.05-.07c-.26,0-.39.16-.5.09h.02c-.34.08-.02.07-.27.2l-.2-.16-.03.08s-.11,0-.1-.03c-.13.06.03.03-.05.09-.18-.06-.48.06-.53-.05-.06.06.17.03-.01.09-.06-.13-.22.04-.38-.01.05-.07.2-.04.04-.09-.09.12-.31,0-.45.02,0,.09-.29.05-.52.1.01-.03-.43-.02-.64-.04v-.02c-.03.09-.25.09-.41.12,0-.06.03-.08.11-.11h-.15s-.08.06-.18.08l.03-.07c-.2.02-.4.11-.65.08,0,.06.22.16-.05.23-.01-.03-.03-.09.04-.11-.02,0-.08.03-.13.02l.1-.07c-.12-.02-.06.05-.15.05,0-.05-.07-.03-.06-.07.02,0,.08.01.12,0-.11,0-.24-.02-.28-.06.01.03,0,.07-.07.08-.2.02-.07-.05-.19-.07-.05.04-.18.01-.17.09-.06,0-.07-.03-.1-.05-.1.04-.48.06-.36.12h.03s-.02,0-.02,0h0s0,0,0,0c-.33.1-.7.03-1.03.11v-.02c-.2.05-.44.08-.58.15-.06,0-.15-.02-.12-.06-.15.04-.16.07-.39.07.15-.07-.06-.03.15-.06-.2.01-.25-.02-.45.08.06-.07-.16-.06-.25-.02l.15.02c-.1.03-.2.04-.29.06l.03-.09c-.43-.02-.69.32-1.03.23-.09.08.23-.01.15.08-.19.03-.41-.03-.46-.02-.26.03-.2.18-.47.23.04.02.09.08-.09.17-.18.05-.26-.05-.15-.11.04-.02.07-.01.07,0,.05-.03.13-.07.05-.07v.04c-.11,0-.36.09-.32.02-.13.07-.04.07.06.05-.25.03-.36.12-.61.18.04,0,.09.02.05.03-.36.1-.13.11-.36.21-.15.02,0-.12-.21.02-.16.04-.06-.06-.02-.11-.19.14-.41.17-.54.23l.1-.08c-.06.05-.11.08-.17.11h.09c-.07.04-.12.08-.13.06-.04.08.1.05,0,.18-.1.03-.22.19-.29.16.26-.16-.08-.05.13-.21-.04.04-.09.07-.15.11-.01,0,0-.02.01-.04-.27.14-.05.16-.28.35,0-.06-.11-.01-.14.03.09-.09.09.01.04.12-.16.11-.13.17-.2.24l.09-.08c0,.06-.06.13-.14.24-.03-.01.06-.11.02-.08-.04.16-.27.21-.36.41-.08.06-.07-.04-.14.02-.07.23-.2.18-.27.43.09-.03.08-.05.05.13.05-.12.1-.25.16-.37-.02.09-.04.18-.06.27.05-.11.1-.24.15-.29-.02.13-.03.11.04.09-.17.09-.12.31-.26.44l-.13-.07c-.19.23-.15.5-.31.83l.07-.1c.03.07-.07.22-.08.34-.04-.03-.08.04-.13.08.03,0-.08.26.01.32l-.1.14c-.09.29.06.36,0,.64-.04-.09-.1.03-.1-.17-.02.09-.04.18,0,.19-.04.05.03.27-.03.35.02.04.07.06.05.17-.01.01-.02,0-.02,0,.02,0,.02.17.08.08-.19.27-.06.81-.21,1.05,0,.21,0,.46,0,.64-.01-.01-.02,0-.02-.04-.05.26.14.16.08.45-.08.15-.04-.16-.07-.06-.16.04.02.35-.07.55v-.05c-.06.15.06.37.06.62,0,0-.01-.01-.02,0,.09.17.14.48.19.72-.07-.07-.04-.1-.1-.05.02.11.1-.04.14.17-.03.07-.03.23-.1.26l-.03-.2c-.07.11.04.26.04.37h-.04c.06.3.17.28.23.61l.02-.04c.13.15-.02.16.11.32l-.08.08c.05.11.23.37.36.55-.12-.07-.28-.29-.36-.43.03.12.17.39.24.42-.03-.04-.08-.09-.09-.14.14.1.24.26.4.45-.19.09.38.54.55.68.24.09.48.08.73.12.22,0,.44.01.69-.02-.19-.13.14-.02.1-.17.11-.02.15-.02.17-.01l.35.05c.09.03-.1.05-.09.08.25-.02.11.05.28.07-.04-.05.08-.09.22-.09l-.21-.05c.33-.12.31.09.65-.04l-.1.06c.17-.05.65-.09.81-.24.03.01.08.05,0,.07.42-.05.91-.28,1.25-.26l-.03.04c.08-.02.12-.09.23-.07,0,.02-.03.04.01.04.04-.02.2-.1.3-.09l-.08.06c.41-.02.61-.2.95-.28.02.11.34.1.5.09v.02c.47-.05.79-.19,1.22-.27.28.1.93,0,1.37.06-.07-.02,0-.09.09-.1.1.02.29-.08.27.02h-.04c.08.1.29.07.46.07l.03-.13c.44.19,1.15-.1,1.4.06.11-.04.24-.05.34-.09v.07c.3,0,.46-.01.81-.07l-.07.06c.2-.02.24-.23.42-.26l.07.1c.35-.05.76-.02,1.11-.26,0,.02,0,.05-.06.08.19-.03.72-.35.55-.42.08.08.31-.31.36-.51l.04.06c.01-.2,0-.21.07-.44.03-.05.07-.02.02.04.11-.16,0-.16.11-.35v.09c.09-.18.05-.17.04-.28.01-.12.12-.33.19-.34-.03-.04-.05-.15,0-.25.03,0,.03.03.03.06.13-.29.04-.47.15-.66.02,0,.04-.01.05-.03-.05.24-.11.43-.11.41.06.02.12-.18.17,0,0-.17-.05-.46.02-.64,0,0,.02-.02.03-.02v.02s.02-.08.02-.12c.02-.06.04-.1.05-.15.06-.01.07-.22.09-.32-.07,0-.03-.13-.11-.02,0-.01,0,.02,0,.09,0,.02,0,.03,0,.04h0c-.01.06-.03.14-.04.23-.02-.08-.03-.17.03-.27-.03-.06-.07-.12-.08-.16.12-.11.22-.36.29-.39.01-.3.1-.71,0-.92,0-.09.05-.09.08-.12,0,.05,0,.11,0,.14,0-.17.07-.5-.02-.56.07-.21.07.13.1-.16l.02.04c.23-.56-.1-.97.17-1.59-.02.04-.02.06-.04.07.17-.73.07-1.52.23-2.25.04-.21-.02-.23-.07-.36l.08-.04-.08-.22c-.06-.31.19-.54.04-.93l-.05.05c0-.14-.06-.44,0-.42-.01-.01-.06-.04-.04-.1h.04c-.03-.12-.08-.23-.12-.34-.04-.28.18.01.05-.41-.06-.18-.42-.37-.38-.28.05.05.12.15.09.17l-.11-.09c-.1.07-.15.16-.14.32.04.03.09.06.13.13l-.04.08s-.03-.11-.05-.14c-.02.09.04.14.09.19-.02.02-.04.05-.04.1l.15.18s-.11-.07-.11.06c.06.09.09-.11.14.05-.04.11-.09.08-.03.2-.03.02-.05,0-.07-.05.05.1.04.28.11.33-.05.11.03.37-.08.36.03.03.09.19.1.29-.13-.18,0,.38-.15.33.12.14.04.5.1.74,0-.01-.03-.04-.02-.06-.02.14-.05.18-.08.26.1.02.11.24.16.36-.11.16-.11-.11-.2-.06.08,0,.06.3.13.25-.07.12-.04.11-.12.17.12.03.01.12.08.23-.08.18-.12.04-.1.25-.05.09-.07-.09-.07-.09ZM17.7,9.95h0s.01-.08.02-.1c0,.02,0,.05-.02.1ZM17.61,10.35s.03-.11.04-.17c.03,0,.05.01.04.05-.01-.03-.05.07-.08.12ZM18.27,9.6c0,.07-.02.09-.04.09,0-.03,0-.07.01-.12h0s.02,0,.03.02Z"/>
      <polygon class="cls-2" points="18.2 9.46 18.2 9.44 18.18 9.47 18.2 9.5 18.2 9.46"/>
      <path class="cls-2" d="M10.13,1.14h0s.02,0,.02,0c0,0-.01,0-.01,0Z"/>
      <polygon class="cls-2" points="13.69 13 13.7 13.02 13.73 13 13.69 13"/>
      <path class="cls-2" d="M12.42,1.21s.01.01.03.02c0,0-.01-.01-.03-.02Z"/>
      <path class="cls-2" d="M13.4,1.17l.14.02c-.06-.01-.11-.01-.14-.02Z"/>
      <path class="cls-2" d="M14.16,1.16s.01-.02.01-.03h0s-.01.03-.01.03Z"/>
      <path class="cls-2" d="M2.86,3.88l-.02.02c-.03.06,0,.02.02-.02Z"/>
      <path class="cls-2" d="M5.81,2.13s-.07.04-.1.06c.06-.01.11-.02.1-.06Z"/>
      <polygon class="cls-2" points="1.49 7.38 1.49 7.38 1.49 7.4 1.49 7.38"/>
      <path class="cls-2" d="M5.55,2.24c.06,0,.11-.03.16-.05-.05,0-.11.02-.16.05Z"/>
      <polygon class="cls-2" points="17.42 .77 17.45 .78 17.46 .76 17.42 .77"/>
      <path class="cls-2" d="M17.46.76h.04s-.03,0-.04,0Z"/>
      <path class="cls-2" d="M17.57.73l-.08.02s.06,0,.08-.02Z"/>
      <path class="cls-2" d="M16.45.88v.03s0-.02,0-.03Z"/>
      <path class="cls-2" d="M16.15.95c.07,0,.19.02.29-.02v-.02s-.23-.02-.29.04Z"/>
      <path class="cls-2" d="M14.85.81h.26s-.11-.05,0-.07c-.33-.06.07.06-.26.07Z"/>
      <path class="cls-2" d="M14.05.82c.14-.02,0-.04,0-.06-.09.03-.11.04,0,.06Z"/>
      <path class="cls-2" d="M8.34,1.31v-.07c-.1.02,0,.02,0,.07Z"/>
      <polygon class="cls-2" points="7.32 1.83 7.43 1.84 7.47 1.78 7.32 1.83"/>
      <polygon class="cls-2" points="6.59 1.52 6.64 1.5 6.47 1.56 6.59 1.52"/>
      <path class="cls-2" d="M.77,8.42l.08-.03c0-.07-.1-.09-.08.03Z"/>
      <path class="cls-2" d="M1.08,12.61c-.03.05-.03.18.04.24-.03-.09-.01-.2-.04-.24Z"/>
      <polygon class="cls-2" points="12.62 13.66 12.53 13.69 12.69 13.67 12.62 13.66"/>
    </g>
  </g>
</svg>