<?xml version="1.0" encoding="UTF-8"?>
<svg id="Capa_1" data-name="Capa 1" xmlns="http://www.w3.org/2000/svg" viewBox="0 0 53.6 51.26">
  <defs>
    <style>
      .cls-1 {
        fill: #1d1d1d;
      }
    </style>
  </defs>
  <g>
    <g>
      <polygon class="cls-1" points="19.67 12.21 19.7 12.23 19.64 12.15 19.67 12.21"/>
      <path class="cls-1" d="M19.59,11.96s-.04-.03-.05-.04l.16.26c.14.09-.2-.28-.11-.21Z"/>
      <path class="cls-1" d="M19.62,11.97c.07.03-.02-.08-.05-.12.07.08-.06.01.05.12Z"/>
      <path class="cls-1" d="M21.36,10.21s0,0,0,.01c0,0,0,0,0-.01Z"/>
      <path class="cls-1" d="M21.53,9.42l-.07-.09c.04.23-.19.17-.23.32l-.02-.03c-.27.19-.37.53-.55.81,0-.01-.02-.04-.03-.05.01.04.05.1.03.11-.02-.01-.03-.04-.04-.05-.18-.09-.07.22-.19.15,0,.03.05.09.09.12-.15.21-.32.42-.41.7-.03,0-.06-.04-.1-.09.05.37-.19.44-.38.57.05.06.07.04.12.11.12.02-.04-.23.1-.17l.05.06c.07,0-.13-.14-.02-.11.06.03.06.07.07.07.05-.09.17-.12.11-.31.13.1.08-.07.22.01-.03-.06,0-.07-.06-.16.31-.18.47-.54.74-.78-.09-.35.32-.21.39-.42,0,0,.02.02.02.02,0-.1.04-.19.13-.22l-.04-.14c.54-.12.76-.58,1.2-.83.46-.31.97-.48,1.07-1.16.02.02.04.03.04.05.07-.15.25-.17.3-.32l.02.02c.07-.44.56-.52.59-.96.31-.28.63-.63.9-1l.04.05c.17-.34.65-.33.85-.64.37-.14.32-.77.72-.88.38.07.15-.62.52-.53.65.05.76-.48.85-1,.41-.18.35-.76.86-.84-.05-.28.46-.13.54-.34l-.07-.04c.24.08-.17-.33.14-.16v.02c.18.07-.28-.32-.1-.21l-.07-.06c0-.05.09.05.14.04,0-.02-.13-.09-.07-.09.3.2,0-.14.34.08-.02.02.16.05.19.15.04,0,.08-.07-.07-.16-.15-.1-.27-.22-.41-.25l.11.08c-.12-.06-.06-.03-.15-.08-.05.04-.22-.06-.31-.07,0,0,0,0,.01,0,.12.11.01.09-.02.1l-.07-.03c-.14-.08.21.23,0,.06-.01.14-.1.25-.18.36.07.08-.07.08.1.17-.2-.11-.3-.06-.32-.03-.02-.01-.03-.03-.02-.03-.27-.12.15.24-.17.07.18.17-.14.05.06.26-.05-.03-.09-.06-.12-.09-.08.09-.25.14-.32.21.1.21-.22.1-.05.36-.09,0-.26,0-.23.14l-.02-.03c-.06.09-.14.19-.05.37-.23-.18-.22-.11-.31-.14.05.14-.08.21-.07.37-.1-.08-.02.1-.16-.03.05.47-.32.64-.74.65h0c.04.09.16.3.22.43-.01,0-.04-.03-.03-.04-.02.07-.19-.04-.21.03t-.03-.05c.02.1-.19-.04-.14.12l-.04-.04.02.08s-.11-.12-.07-.12c-.42.29-.59.89-1,1.21l-.03-.06v.15s-.03-.04-.04-.05c-.17,0-.15.23-.26.3-.02-.02-.05-.08-.09-.09.05.19-.26-.06-.05.23-.01,0-.07-.07-.09-.09-.11.27-.3.45-.53.59.08.38-.3.36-.27.7l-.05-.05c-.03.37-.43.42-.61.66-.11.07-.11.18-.2.27l-.06-.06c.06.37-.51.11-.44.5l-.06-.09c.09.15-.14.05.07.25l-.09-.04c.16.39-.32.06-.29.37l-.04-.06c0,.07-.01.14-.08.12,0-.01-.02-.02-.02-.05-.3-.1-.22.24-.35.34l-.07-.11c.04.16-.16.16-.19.28l-.04-.05.02.1-.08-.09c-.1.08-.13.25-.21.35Z"/>
      <path class="cls-1" d="M20.63,10.44h0s0,0,0,0Z"/>
      <path class="cls-1" d="M29.6.72h.03s-.02,0-.03,0Z"/>
    </g>
    <g>
      <polygon class="cls-1" points="39.18 11.75 39.2 11.72 39.11 11.77 39.18 11.75"/>
      <path class="cls-1" d="M38.93,11.8s-.04.03-.05.05l.27-.13c.12-.12-.3.17-.22.08Z"/>
      <path class="cls-1" d="M38.94,11.77c.04-.06-.08.01-.12.04.09-.06,0,.06.12-.04Z"/>
      <path class="cls-1" d="M37.59,10.04h.01s0,0-.01,0Z"/>
      <path class="cls-1" d="M36.88,9.84l-.09.06c.22-.02.13.19.26.23l-.04.02c.13.26.44.37.67.56-.01,0-.04.02-.05.02.04-.01.11-.04.11-.02-.02.02-.04.03-.06.03-.11.16.2.08.11.19.03,0,.09-.04.13-.08.17.15.34.33.59.42-.01.02-.05.06-.11.09.36-.02.38.21.46.4.07-.04.05-.07.13-.1.04-.11-.22.02-.14-.11l.06-.04c.01-.06-.16.11-.11.01.04-.05.08-.05.08-.06-.08-.05-.08-.17-.28-.12.12-.11-.05-.08.05-.2-.07.02-.07,0-.16.05-.11-.3-.43-.47-.61-.74-.35.06-.14-.3-.33-.39,0,0,.02-.01.03-.02-.1,0-.18-.05-.18-.13l-.14.03c-.01-.5-.41-.74-.56-1.16-.21-.44-.25-.92-.86-1.08.03-.02.04-.03.06-.03-.13-.08-.1-.24-.23-.31l.03-.02c-.39-.12-.34-.57-.75-.66-.19-.32-.45-.66-.74-.94l.05-.04c-.29-.18-.19-.63-.46-.82-.07-.35-.68-.33-.72-.71.13-.35-.56-.17-.42-.51.15-.6-.33-.72-.8-.84-.09-.39-.66-.38-.62-.87-.27.02-.02-.45-.19-.54l-.05.06c.13-.21-.34.11-.11-.15h.02c.11-.15-.37.22-.22.06l-.07.05s.07-.07.08-.12c-.02,0-.12.1-.1.05.26-.25-.13-.02.17-.3.02.02.09-.13.19-.15.02-.04-.04-.08-.16.04-.14.12-.27.21-.35.33l.1-.08c-.09.1-.04.05-.11.12.02.05-.11.19-.15.27,0,0,0,0,.01,0,.14-.09.09,0,.09.04l-.05.06c-.11.11.27-.16.06,0,.12.04.21.14.29.23.09-.05.06.08.19-.07-.15.17-.13.28-.1.3-.02.01-.04.03-.03.02-.17.24.25-.11.03.16.19-.15.01.14.26-.02-.04.04-.07.08-.11.1.07.09.08.24.13.32.22-.08.05.21.33.08-.01.09-.05.24.09.23l-.03.02c.07.06.16.14.34.07-.21.2-.14.2-.19.28.14-.04.19.09.34.09-.1.09.09.03-.06.15.45-.02.56.32.5.72h-.01c.11-.03.32-.13.45-.19-.01.01-.04.03-.04.02.06.02-.06.17,0,.19t-.06.03c.1-.01-.06.17.09.13l-.04.03h.08c-.05.02-.13.08-.12.05.21.39.75.57.97.98l-.06.02h.14s-.04.03-.06.04c-.02.15.19.15.23.25-.03.02-.09.04-.11.07.19-.03-.11.24.21.06-.01.01-.08.06-.11.07.23.12.35.32.44.54.38-.03.25.32.58.34l-.05.04c.33.08.28.45.47.64.04.11.15.13.21.22l-.07.05c.36-.02,0,.48.38.45l-.1.05c.16-.07.02.13.25-.04l-.05.08c.4-.11-.01.3.29.29l-.06.03c.07,0,.13.02.1.09-.01,0-.03.02-.05.02-.15.27.19.22.26.34l-.12.06c.16-.03.12.16.23.19l-.05.03h.1s-.1.06-.1.06c.06.1.21.13.29.22Z"/>
      <path class="cls-1" d="M37.68,10.73h0s0,0,0,0Z"/>
      <path class="cls-1" d="M30.27,1.63v-.03s0,.02,0,.03Z"/>
    </g>
    <g>
      <polygon class="cls-1" points="38.26 28.4 38.3 28.4 38.2 28.37 38.26 28.4"/>
      <path class="cls-1" d="M38.04,28.25s-.05,0-.07,0l.29.1c.17-.02-.33-.09-.22-.1Z"/>
      <path class="cls-1" d="M38.07,28.23c.07-.02-.07-.05-.11-.06.11.02-.04.05.11.06Z"/>
      <path class="cls-1" d="M38.21,25.61s0,0,0,0c0,0,0,0,0,0Z"/>
      <path class="cls-1" d="M37.79,24.89l-.11-.02c.19.14-.02.27.05.41h-.04c-.07.33.09.66.15,1-.01,0-.04-.01-.06-.02.04.02.11.04.1.06-.02,0-.05,0-.06-.02-.19.06.1.22-.04.25.02.02.09.04.15.03.03.27.04.56.16.84-.03.01-.08,0-.14,0,.28.25.14.49.08.72.08.02.08-.02.16.01.1-.07-.18-.15-.03-.21h.07c.05-.03-.19-.01-.09-.05.06-.02.1.01.1,0-.02-.11.05-.21-.12-.33.17-.01.01-.11.17-.14-.06-.03-.04-.06-.15-.08.12-.37-.01-.76.03-1.14-.3-.2.09-.39,0-.61.01,0,.02,0,.03,0-.07-.08-.1-.18-.06-.26l-.13-.08c.31-.48.16-1,.31-1.49.12-.57.39-1.05.02-1.64.03,0,.05,0,.06.02-.05-.17.07-.3.02-.46h.03c-.23-.39.1-.78-.16-1.16.06-.44.07-.94.03-1.42h.06c-.1-.38.26-.71.19-1.1.17-.37-.3-.82-.08-1.19.33-.22-.31-.58.03-.78.52-.42.24-.9,0-1.38.2-.41-.2-.87.18-1.26-.21-.21.31-.39.26-.61h-.08c.24-.06-.32-.2.04-.22h.02c.18-.02-.41-.12-.2-.13h-.09c-.02-.07.1-.01.14-.05,0-.02-.16-.02-.11-.04.36.02-.07-.13.34-.1,0,.03.16-.03.24.04.04-.01.03-.1-.14-.11-.18-.02-.34-.07-.48-.03l.13.02c-.13,0-.07,0-.17,0-.02.07-.22.06-.3.1,0,0,0,0,.01,0,.16.05.06.08.03.11h-.07c-.16,0,.3.1.03.06.06.14.04.3.03.45.1.03-.02.12.18.1-.22.02-.29.13-.28.17-.02,0-.04,0-.04-.01-.29.06.26.12-.1.17.25.03-.09.13.2.2-.06,0-.11,0-.15,0-.02.14-.12.28-.14.4.21.12-.12.23.18.34-.07.07-.2.17-.09.28h-.04c0,.1.01.24.2.33-.29.01-.24.06-.33.1.13.08.08.23.19.35-.13,0,.05.1-.14.09.35.35.19.73-.12,1.05h-.01c.1.05.33.12.46.17-.02,0-.05,0-.05,0,.03.06-.16.11-.13.17t-.06-.02c.08.06-.16.11-.02.19h-.05s.07.05.07.05c-.06,0-.16-.02-.14-.04-.1.53.18,1.1.09,1.64l-.06-.02.1.11s-.05,0-.06-.02c-.12.13.05.28.01.41-.03,0-.09-.03-.13-.01.17.11-.24.14.12.22-.02,0-.1,0-.13-.01.1.28.07.56,0,.82.31.25,0,.48.23.74h-.06c.2.32-.06.62-.04.94-.04.13.03.22.03.36h-.08c.29.24-.31.44,0,.7l-.11-.02c.17.05-.07.14.22.14l-.09.03c.37.19-.2.27.04.49l-.07-.02c.05.06.09.12.02.15,0,0-.03,0-.05-.02-.29.14,0,.34-.02.51l-.13-.03c.15.09,0,.23.05.35h-.06s.08.05.08.05h-.12c-.02.13.08.27.08.41Z"/>
      <path class="cls-1" d="M37.82,26.32s0,0,0,0c-.01,0,0,0,0,0Z"/>
      <path class="cls-1" d="M38.28,12.3s.02-.01.03-.02c-.02,0-.02.01-.03.02Z"/>
    </g>
    <g>
      <polygon class="cls-1" points="19.75 29.58 19.76 29.62 19.79 29.52 19.75 29.58"/>
      <path class="cls-1" d="M19.91,29.36s0-.05,0-.07l-.1.29c.03.17.08-.34.1-.22Z"/>
      <path class="cls-1" d="M19.93,29.39c.03.07.05-.07.06-.11-.02.11-.06-.04-.06.11Z"/>
      <path class="cls-1" d="M22.8,29.53s0,0-.01,0c0,0,0,0,.01,0Z"/>
      <path class="cls-1" d="M23.59,29.12l.02-.11c-.16.19-.3-.03-.45.05v-.04c-.36-.07-.72.08-1.1.14,0-.01.01-.04.02-.06-.02.04-.05.11-.07.1,0-.03,0-.05.02-.06-.06-.19-.24.1-.28-.05-.02.02-.04.09-.03.15-.3.02-.61.04-.92.16-.01-.03-.01-.08,0-.14-.27.28-.53.14-.78.08-.01.08.02.08,0,.16.08.1.16-.18.23-.04v.07c.04.05,0-.19.06-.09.02.06-.01.1,0,.1.12-.02.23.05.36-.12.02.17.12.01.16.17.03-.06.06-.04.08-.15.4.12.83-.01,1.25.04.22-.3.43.1.67,0v.03c.08-.07.19-.1.28-.05l.09-.13c.53.32,1.1.17,1.66.31.63.11,1.2.36,1.83-.06,0,.03,0,.05-.01.06.18-.06.35.05.51-.02v.03c.41-.27.88,0,1.27-.31.49-.01,1.04-.1,1.54-.26v.06c.4-.19.84.08,1.24-.09.44.07.8-.49,1.26-.37.3.27.56-.44.85-.15.57.41,1,.06,1.5-.26.47.15.95-.31,1.41.07.23-.22.44.31.67.27v-.08c.06.24.23-.31.24.05h-.01c.02.2.16-.39.16-.17l.02-.09c.06-.02,0,.1.03.14.02,0,.03-.16.06-.1-.05.36.15-.06.08.34-.03,0,.02.16-.06.23.01.04.1.04.13-.13.04-.18.11-.33.08-.48l-.04.13c0-.13,0-.07,0-.17-.07-.03-.05-.22-.09-.31,0,0,0,0,0,.01-.06.15-.1.05-.13.02v-.07c0-.16-.13.29-.07.03-.17.04-.34.02-.52,0-.03.1-.13-.02-.11.18-.02-.22-.15-.3-.2-.29,0-.02,0-.04.01-.04-.08-.29-.13.26-.2-.09-.03.25-.16-.09-.22.2,0-.06-.01-.11,0-.15-.16-.02-.33-.1-.47-.11-.11.22-.28-.1-.37.21-.08-.06-.22-.18-.33-.05v-.04c-.12.02-.28.05-.35.24-.06-.28-.11-.22-.17-.31-.07.14-.25.11-.36.25-.03-.13-.1.07-.13-.12-.32.41-.76.33-1.18.11h0c-.03.1-.06.34-.09.48,0-.02-.01-.05,0-.05-.06.05-.15-.13-.22-.09t0-.06c-.05.09-.15-.13-.21.03v-.05s-.05.08-.05.08c0-.06-.02-.16,0-.14-.6.03-1.14.45-1.74.5v-.06s-.09.12-.09.12c0-.03,0-.05,0-.06-.16-.08-.29.12-.43.11,0-.03,0-.1-.02-.13-.08.19-.2-.2-.2.17,0-.02-.02-.1-.01-.13-.28.16-.58.19-.88.16-.21.35-.52.08-.76.35v-.07c-.33.25-.69.02-1.04.07-.14-.02-.24.05-.39.06v-.08c-.25.31-.51-.28-.77.05l.02-.11c-.04.17-.15-.06-.15.23l-.04-.09c-.19.38-.31-.19-.53.05l.02-.07c-.06.05-.13.09-.17.02,0,0,0-.03.02-.05-.16-.28-.37,0-.56-.01l.03-.13c-.1.15-.26,0-.38.06v-.06s-.05.08-.05.08v-.12c-.15-.02-.3.08-.45.08Z"/>
      <path class="cls-1" d="M22.02,29.13h0s0,0,0,0Z"/>
      <path class="cls-1" d="M37.47,27.98l.02.03s-.01-.02-.02-.03Z"/>
    </g>
    <g>
      <polygon class="cls-1" points="19.59 29.11 19.62 29.11 19.52 29.08 19.59 29.11"/>
      <path class="cls-1" d="M19.36,28.96s-.05,0-.07,0l.29.1c.17-.03-.34-.08-.22-.1Z"/>
      <path class="cls-1" d="M19.39,28.94c.07-.03-.07-.05-.11-.06.11.02-.04.06.11.06Z"/>
      <path class="cls-1" d="M19.46,26.13s0,0,0,.01c0,0,0,0,0-.01Z"/>
      <path class="cls-1" d="M19.02,25.38h-.11c.19.13-.01.28.07.42h-.04c-.06.35.11.7.18,1.06-.01,0-.04-.01-.06-.02.04.02.11.04.1.06-.02,0-.05,0-.06-.01-.19.07.11.23-.04.27.02.02.09.04.15.03.03.29.05.59.18.89-.03.01-.08.01-.14,0,.28.26.15.52.09.77.08.01.08-.02.16,0,.1-.08-.18-.16-.04-.23h.07c.05-.04-.19,0-.09-.06.06-.02.1.01.1,0-.02-.12.05-.23-.13-.35.17-.02.01-.12.17-.16-.06-.03-.04-.06-.15-.08.11-.4-.03-.81,0-1.22-.31-.21.08-.42-.02-.65h.03c-.08-.08-.11-.19-.06-.27l-.13-.08c.3-.52.12-1.07.26-1.61.1-.61.34-1.14-.05-1.75.03,0,.05,0,.06.01-.06-.17.06-.33,0-.49h.03c-.25-.41.06-.84-.21-1.23.04-.47.03-1.01-.04-1.51h.06c-.12-.4.22-.78.14-1.18.16-.41-.33-.86-.13-1.26.32-.24-.33-.61,0-.83.5-.47.21-.96-.05-1.47.19-.45-.22-.93.15-1.35-.21-.22.3-.42.25-.66h-.08c.24-.07-.32-.2.03-.23h.02c.18-.02-.41-.12-.2-.13h-.09c-.02-.07.1-.01.14-.05-.01-.02-.16-.02-.11-.05.36.02-.07-.14.33-.11,0,.03.16-.04.24.04.04-.02.03-.11-.14-.11-.18-.02-.34-.06-.48-.02l.13.02c-.13,0-.07,0-.17,0-.02.07-.22.07-.3.11,0,0,0,0,.01,0,.16.05.06.09.04.11h-.07c-.16.01.3.11.03.07.06.15.04.32.04.48.1.03-.02.12.18.1-.22.03-.29.15-.28.19-.02,0-.04,0-.04-.01-.29.07.26.12-.1.18.25.03-.09.14.2.21-.06,0-.11,0-.15,0-.01.15-.11.3-.13.43.21.12-.11.25.18.36-.07.07-.2.19-.08.3h-.04c.01.11.02.26.21.35-.29.02-.23.08-.33.12.13.09.08.24.2.37-.13.01.05.1-.14.1.36.36.21.77-.08,1.12h-.01c.1.05.34.11.47.16-.02,0-.05,0-.05,0,.03.07-.16.12-.13.19t-.06-.01c.08.07-.16.12-.01.2h-.05s.07.05.07.05c-.06,0-.16,0-.14-.03-.08.57.23,1.17.16,1.75l-.06-.02.1.12s-.05,0-.06-.01c-.11.14.06.3.03.44-.03,0-.09-.02-.13,0,.17.11-.23.16.13.22-.02,0-.1,0-.13,0,.11.29.1.59.03.88.32.25.02.51.27.77h-.07c.22.33-.04.67,0,1.01-.03.14.04.24.04.38h-.08c.3.25-.29.49.04.75l-.11-.02c.17.04-.06.15.23.14l-.09.04c.38.18-.19.3.06.51l-.07-.02c.05.06.09.12.03.16,0,0-.03,0-.05-.02-.28.16.02.36,0,.54l-.13-.03c.15.09,0,.25.07.37h-.06s.08.05.08.05h-.12c-.01.15.09.29.1.44Z"/>
      <path class="cls-1" d="M19.1,26.9h0s0,0,0,0Z"/>
      <path class="cls-1" d="M19.04,11.93s.02-.01.03-.02c-.02,0-.02.01-.03.02Z"/>
    </g>
  </g>
  <g>
    <polygon class="cls-1" points="17.7 17.35 17.65 17.32 17.61 17.45 17.7 17.35"/>
    <path class="cls-1" d="M17.28,17.76s.03.04.05.05l.18-.4c-.2-.1-.1.41-.23.34Z"/>
    <path class="cls-1" d="M17.19,17.78c-.14-.01-.13.14-.14.19,0-.12.22-.06.14-.19Z"/>
    <path class="cls-1" d="M12.75,26.92s0-.03-.01-.04c0,.02,0,.03.01.04Z"/>
    <path class="cls-1" d="M13.68,29.53h.12c-.33-.44-.24-1.04-.41-1.54l.04.03c-.16-1.33-.39-2.57-.29-3.93,0,.02.04.03.05.06-.03-.07-.1-.15-.07-.22.03-.01.05.03.05.05.24-.25.04-.85.22-.99,0-.08-.06-.14-.13-.11.21-1.06.67-2.13,1.26-3.13.05-.03.1,0,.14.05.41-.95,1.39-1.49,2.28-1.86,0-.09-.13-.03-.07-.15-.34.05-.43.43-.75.46v-.08c-.22.07.06.18-.18.22-.11,0-.03-.09-.07-.07-.36.27-.8.53-.98.97-.19-.04-.35.35-.57.39-.03.13-.11.22-.05.32-1.02,1.27-1.32,2.91-1.5,4.44.11.38.07.77.03,1.19-.06.41-.1.85-.02,1.28-.01,0-.02,0-.03,0,.08.28.19.67.19,1.01l.17.26c.08,2.03.95,3.98,2.08,5.71.65.98,1.49,1.81,2.4,2.41.92.6,1.92,1.08,3.06,1.26-.01.03,0,.05-.06.04.63.19,1.17.44,1.78.55v.03c1.51.12,3.11.6,4.58.35,1.76.08,3.76-.11,5.57-.54v.06c1.44-.4,2.92-.43,4.3-1.05,1.52-.42,2.7-1.66,3.96-2.5.44-.22.82-.65,1.09-1.13.31-.45.51-.95.91-1.22,1.38-1.33,1.68-3.4,1.29-5.17.01-.21.02-.42.01-.63-.03-.21-.06-.42-.09-.62-.05-.42-.2-.81-.32-1.21-.24-.8-.6-1.5-.92-2.27-.61-.48-.83-1.44-1.59-1.94l-.02.08c-.11-.39-.75-.14-.72-.53h.04c-.04-.24-.55.15-.52-.07l-.07.06c-.18-.08.03-.1-.08-.21-.06-.02-.1.13-.18.03.15-.33-.46-.16-.29-.52.1.05-.08-.22.18-.18-.04-.07-.36-.21-.41-.04-.11.15-.29.24-.17.45l.09-.1c0,.15.02.08,0,.18.22.13.17.32.29.48,0,0,0,0,0-.01.19-.08.29.09.36.16v.08c-.03.16.4-.11.2.08.47.21.96.56,1.38.94.13-.03.31.31.36.08-.04.26.2.6.31.71-.02,0-.04.02-.05,0-.03.41.44.11.33.54.23-.11.22.45.54.44-.03.06-.07.09-.11.1.25.44.37.97.47,1.38.29.31.14.88.47,1.14-.04.28-.06.71.06,1.07l-.04-.03c.04.41.07.93.22,1.23-.3.1-.25.28-.36.45.08.28-.03.83-.04,1.27-.15.03-.05.35-.24.31.01,1.25-.92,2.58-1.99,3.3v-.02c-.02.2,0,.49-.02.71-.02,0-.05-.02-.02-.05-.15.19-.44.21-.59.4t-.01-.07c-.11.21-.45.17-.56.45l-.04-.03-.09.16c-.03-.05-.09-.13,0-.17-1.62,1.17-3.47,2.27-5.59,2.72l.06-.08-.38.2s.01-.05.03-.07c-.53.03-1.04.3-1.55.38,0-.03.06-.11-.02-.13-.35.24-.64-.13-.77.26-.02-.01-.04-.09-.01-.13-1.03.29-2.12.38-3.19.36-.88.35-1.88.05-2.82.22v-.06c-1.22.14-2.46-.33-3.65-.63-.49-.16-.85-.2-1.33-.39l.02-.08c-.96-.02-1.55-.99-2.49-1.16l.11-.06c-.22.09-.42-.36-.54-.08l-.08-.17c-.75-.04-.81-.8-1.5-1.17h.08c-.17-.12-.36-.28-.42-.43.02.01.03,0,.08.01-.18-.65-.81-1.05-1.13-1.66h.15c-.31-.2-.41-.81-.65-1.16h.07s-.15-.17-.15-.17l.11-.05c-.2-.51-.46-.97-.61-1.49Z"/>
    <path class="cls-1" d="M13.17,23.98h0s0,.02,0,0Z"/>
    <path class="cls-1" d="M39.35,20.02s-.03-.03-.05-.05c0,.02.03.04.05.05Z"/>
  </g>
  <g>
    <polygon class="cls-1" points="49.28 26.75 49.27 26.72 49.27 26.82 49.28 26.75"/>
    <path class="cls-1" d="M49.25,26.99s0,.05,0,.07l.02-.3c0-.17-.01.34-.02.23Z"/>
    <path class="cls-1" d="M49.24,26.96c0-.07,0,.07,0,.12,0-.11.01.03,0-.12Z"/>
    <path class="cls-1" d="M48.71,27.02s0,0,0,0c0,0,0,0,0,0Z"/>
    <path class="cls-1" d="M48.57,27.5v.11c.02-.2.05,0,.08-.08v.04c.07.04.13-.14.2-.23,0,.01,0,.04,0,.06,0-.04,0-.11.01-.1,0,.02,0,.05,0,.06.01.18.04-.12.05.03,0-.02,0-.1,0-.15.05-.05.11-.08.17-.23,0,.03,0,.08,0,.14.05-.3.1-.18.14-.13,0-.08,0-.08,0-.16-.02-.1-.03.19-.04.05v-.08s0,.19-.01.09c0-.06,0-.1,0-.1-.02.03-.04-.04-.06.15,0-.16-.02,0-.03-.16,0,.06-.01.05-.01.16-.08-.09-.15.07-.23.06-.04.32-.08-.06-.12.05,0-.01,0-.02,0-.03-.01.08-.03.12-.05.08v.13c-.12-.28-.22-.08-.32-.2-.12-.08-.22-.31-.33.11,0-.03,0-.05,0-.06-.03.06-.06-.05-.09.02v-.03c-.08.26-.16-.04-.23.25-.09-.03-.19,0-.29.08v-.06c-.08.13-.15-.2-.23-.1-.08-.14-.16.36-.24.17-.05-.31-.11.35-.16.03-.09-.48-.19-.17-.28.12-.09-.17-.17.27-.26-.08-.04.22-.08-.28-.13-.21v.08c-.01-.24-.03.33-.04-.02v-.02c0-.18-.02.42-.02.21v.09s0-.1-.01-.14c0,.01,0,.16,0,.11,0-.36-.03.08-.03-.33,0,0,0-.16,0-.24,0-.04-.02-.02-.02.15,0,.18,0,.34,0,.48v-.13c0,.13,0,.07,0,.17.01.02.02.21.03.29,0,0,0,0,0-.01,0-.16.02-.06.02-.04v.07c0,.15.02-.3.01-.04.03-.07.06-.06.09-.07,0-.1.02,0,.02-.19,0,.22.03.28.04.27,0,.02,0,.04,0,.04.02.29.02-.27.04.09,0-.25.03.08.04-.21,0,.06,0,.1,0,.15.03,0,.06.1.08.11.02-.22.05.1.07-.2.01.06.04.19.06.07v.04s.05-.03.06-.22c0,.29.02.23.03.32.02-.13.05-.09.07-.22,0,.13.02-.06.02.14.06-.37.14-.24.21.04h0c0-.09.02-.33.03-.46,0,.02,0,.05,0,.05.01-.04.02.15.04.12t0,.06c.01-.09.02.15.04,0v.05s0-.07,0-.07c0,.06,0,.16,0,.14.11.06.22-.27.33-.22v.06s.02-.11.02-.11c0,.03,0,.05,0,.06.03.11.06-.07.08-.04,0,.03,0,.09,0,.13.02-.17.03.23.04-.14,0,.02,0,.1,0,.13.06-.12.11-.11.17-.05.05-.33.1-.03.15-.29v.07c.06-.23.13.02.19-.03.03.03.04-.05.07-.05v.08c.05-.31.1.28.14-.06v.11c0-.17.03.06.02-.23v.09c.04-.39.07.18.11-.07v.07c0-.05.02-.1.03-.03,0,.01,0,.03,0,.05.03.28.07-.03.1-.02v.13c.01-.15.04-.01.07-.08v.06s0-.09,0-.09v.12s.06-.1.08-.11Z"/>
    <path class="cls-1" d="M48.86,27.36s0,0,0,0c0,.01,0,0,0,0Z"/>
    <path class="cls-1" d="M46.01,27.99s0-.01,0-.02c0,.02,0,.02,0,.02Z"/>
  </g>
  <g>
    <polygon class="cls-1" points="6.98 27.19 6.98 27.23 6.99 27.13 6.98 27.19"/>
    <path class="cls-1" d="M7.01,26.96s0-.05,0-.07l-.02.3c0,.17.02-.34.02-.23Z"/>
    <path class="cls-1" d="M7.02,26.99c0,.07.01-.07.01-.12,0,.11-.01-.03-.01.12Z"/>
    <path class="cls-1" d="M7.72,26.92s0,0,0,0c0,0,0,0,0,0Z"/>
    <path class="cls-1" d="M7.91,26.45v-.11c-.03.2-.07,0-.11.08v-.04c-.09-.04-.17.14-.27.23,0-.01,0-.04,0-.06,0,.04,0,.11-.01.1,0-.02,0-.05,0-.06-.02-.18-.06.12-.07-.03,0,.02,0,.1,0,.15-.07.05-.15.08-.22.23,0-.03,0-.08,0-.14-.06.3-.13.18-.19.13,0,.08,0,.08,0,.16.02.1.04-.19.06-.05v.08s0-.19.01-.09c0,.06,0,.1,0,.1.03-.03.06.04.09-.15,0,.16.03,0,.04.16,0-.06.01-.05.02-.16.1.09.2-.07.31-.06.05-.32.11.06.16-.05,0,.01,0,.02,0,.03.02-.08.05-.12.07-.08l.02-.13c.13.28.27.08.41.2.15.08.29.31.44-.11,0,.03,0,.05,0,.06.04-.06.08.05.12-.02v.03c.1-.26.21.04.31-.25.12.03.25,0,.38-.08v.06c.1-.13.2.2.3.1.1.14.21-.36.32-.17.06.31.15-.35.21-.03.12.48.24.17.37-.12.11.17.23-.27.34.08.05-.22.11.28.17.21v-.08c.02.24.04-.33.06.02v.02c0,.18.02-.42.03-.21v-.09s0,.1.01.13c0-.01,0-.16,0-.11,0,.36.03-.08.03.33,0,0,.01.16,0,.24,0,.04.03.02.03-.15,0-.18.01-.34,0-.48v.13c0-.13,0-.07,0-.17-.02-.02-.02-.21-.03-.29,0,0,0,0,0,.01,0,.16-.02.06-.03.04v-.07c0-.15-.02.3-.02.04-.04.07-.08.06-.12.07,0,.1-.03,0-.02.19-.01-.22-.04-.28-.05-.27,0-.02,0-.04,0-.04-.02-.29-.03.27-.05-.09,0,.25-.04-.08-.05.21,0-.06,0-.1,0-.15-.04,0-.08-.1-.11-.11-.03.22-.06-.1-.09.2-.02-.06-.05-.19-.08-.07v-.04s-.06.03-.09.22c0-.29-.02-.23-.03-.32-.02.13-.06.09-.09.22,0-.13-.03.06-.03-.14-.09.37-.19.24-.28-.04h0c-.01.09-.03.33-.04.46,0-.02,0-.05,0-.05-.02.04-.03-.15-.05-.12t0-.06c-.02.09-.03-.15-.05,0v-.05s-.01.07-.01.07c0-.06,0-.16,0-.14-.14-.06-.29.27-.44.22v-.06s-.02.11-.02.11c0-.03,0-.05,0-.06-.04-.11-.07.07-.11.04,0-.03,0-.09,0-.13-.03.17-.04-.23-.06.14,0-.02,0-.1,0-.13-.07.12-.15.11-.22.05-.06.33-.13.03-.19.29v-.07c-.08.23-.17-.02-.25.03-.04-.03-.06.05-.09.05v-.08c-.06.31-.13-.28-.19.06v-.11c0,.17-.03-.06-.03.23v-.09c-.05.39-.09-.18-.14.07v-.07c-.01.05-.03.1-.04.03,0-.01,0-.03,0-.05-.04-.28-.09.03-.14.02v-.13c-.02.15-.06.01-.09.08v-.06s-.01.09-.01.09v-.12s-.07.1-.11.11Z"/>
    <path class="cls-1" d="M7.53,26.59s0,0,0,0c0-.01,0,0,0,0Z"/>
    <path class="cls-1" d="M11.28,25.96s0,.01,0,.02c0-.02,0-.02,0-.02Z"/>
  </g>
  <g>
    <polygon class="cls-1" points="28.36 44.76 28.4 44.75 28.3 44.75 28.36 44.76"/>
    <path class="cls-1" d="M28.13,44.73s-.05,0-.07,0l.3.02c.17,0-.34-.01-.23-.02Z"/>
    <path class="cls-1" d="M28.16,44.72c.07,0-.07,0-.12-.01.11,0-.03.01.12.01Z"/>
    <path class="cls-1" d="M28.09,44.15s0,0,0,0c0,0,0,0,0,0Z"/>
    <path class="cls-1" d="M27.62,44h-.11c.2.03,0,.06.08.09h-.04c-.04.07.14.14.23.22-.01,0-.04,0-.06,0,.04,0,.11,0,.1.01-.02,0-.05,0-.06,0-.18.02.12.05-.03.06.02,0,.1,0,.15,0,.05.06.08.12.23.18-.03,0-.08,0-.14,0,.3.05.18.1.13.16.08,0,.08,0,.16,0,.1-.02-.19-.03-.05-.05h.08s-.19,0-.09-.01c.06,0,.1,0,.1,0-.03-.02.04-.05-.15-.07.16,0,0-.03.16-.03-.06,0-.05-.01-.16-.01.09-.08-.07-.17-.06-.25-.32-.04.06-.09-.05-.13.01,0,.02,0,.03,0-.08-.02-.12-.04-.08-.06l-.13-.02c.28-.11.08-.22.2-.33.08-.13.31-.24-.11-.36.03,0,.05,0,.06,0-.06-.04.05-.07-.02-.1h.03c-.26-.08.04-.17-.25-.25.03-.1,0-.21-.08-.31h.06c-.13-.08.2-.16.1-.24.14-.08-.36-.17-.17-.26.31-.05-.35-.12-.03-.17.48-.1.17-.2-.12-.3.17-.09-.27-.19.08-.28-.22-.04.28-.09.21-.14h-.08c.24-.02-.33-.04.02-.05h.02c.18,0-.42-.02-.21-.02h-.09s.1,0,.13-.01c-.01,0-.16,0-.11,0,.36,0-.08-.03.33-.03,0,0,.16,0,.24,0,.04,0,.02-.02-.15-.02-.18,0-.34,0-.48,0h.13c-.13,0-.07,0-.17,0-.02.01-.21.02-.29.03,0,0,0,0,.01,0,.16,0,.06.02.04.02h-.07c-.15,0,.3.02.04.01.07.03.06.06.07.1.1,0,0,.03.19.02-.22,0-.28.03-.27.04-.02,0-.04,0-.04,0-.29.02.27.02-.09.04.25,0-.08.03.21.04-.06,0-.1,0-.15,0,0,.03-.1.06-.11.09.22.02-.1.05.2.07-.06.02-.19.04-.07.06h-.04s.03.05.22.07c-.29,0-.23.02-.32.03.13.02.09.05.22.07-.13,0,.06.02-.14.02.37.07.24.16-.04.23h-.01c.11,0,.34.02.48.03-.02,0-.05,0-.05,0,.04.01-.15.03-.12.04t-.06,0c.09.01-.15.03,0,.04h-.05s.07.01.07.01c-.06,0-.16,0-.14,0-.06.12.27.24.22.36h-.06s.11.02.11.02c-.03,0-.05,0-.06,0-.11.03.07.06.04.09-.03,0-.09,0-.13,0,.17.02-.23.03.14.05-.02,0-.1,0-.13,0,.12.06.11.12.05.18.33.05.03.11.29.16h-.07c.23.07-.02.14.03.21-.03.03.05.05.06.08h-.08c.31.05-.28.1.06.15h-.11c.17,0-.06.03.23.02h-.09c.39.04-.18.07.07.11h-.07c.05,0,.1.02.03.03-.01,0-.03,0-.05,0-.28.04.03.07.02.11h-.13c.15.01.01.05.08.07h-.06s.09.01.09.01h-.12s.1.06.11.09Z"/>
    <path class="cls-1" d="M27.76,44.31s0,0,0,0c-.01,0,0,0,0,0Z"/>
    <path class="cls-1" d="M27.13,41.23s.01,0,.02,0c-.02,0-.02,0-.02,0Z"/>
  </g>
  <g>
    <polygon class="cls-1" points="2.24 25.49 2.2 25.49 2.31 25.51 2.24 25.49"/>
    <path class="cls-1" d="M2.47,25.57s.05,0,.07,0l-.29-.06c-.17,0,.34.06.22.06Z"/>
    <path class="cls-1" d="M2.44,25.58c-.07,0,.07.02.12.03-.11-.01.03-.02-.12-.03Z"/>
    <path class="cls-1" d="M2.45,26.75h0s0,0,0,0Z"/>
    <path class="cls-1" d="M2.91,27.05h.11c-.2-.05,0-.11-.08-.17h.04c.05-.14-.13-.28-.21-.43.01,0,.04,0,.06,0-.04,0-.11-.02-.1-.03.02,0,.05,0,.06,0,.18-.02-.11-.1.03-.11-.02,0-.1-.02-.15-.01-.04-.12-.07-.25-.21-.38.03,0,.08,0,.14,0-.29-.12-.17-.22-.12-.32-.08-.01-.08,0-.16-.01-.1.03.19.08.04.1h-.08s.19,0,.09.03c-.06,0-.1,0-.1,0,.03.05-.04.1.14.15-.16,0,0,.05-.17.06.06.02.05.03.16.04-.09.16.06.34.04.51.31.09-.07.17.03.27h-.03c.08.03.11.08.07.11l.13.03c-.29.22-.1.44-.23.67h0s0,0,0,0h0s.74-.17.74-.17h0s0,0,0,0h0s0-.02,0-.02v-.03s-.01-.06-.01-.06v-.11c-.03-.07-.04-.15-.07-.21-.06-.12-.18-.21-.43-.18.02-.02.04-.03.05-.03-.1-.02-.06-.14-.15-.15l.02-.02c-.31.04-.22-.28-.55-.21-.14-.17-.36-.34-.51-.37v-.09c-.07.03-.13-.09-.22-.26-.08-.16-.2-.37-.25-.34-.02-.04-.04-.08-.06-.1-.06-.03-.04.14-.05.2-.01,0,0,.15,0,.2,0,.07-.02.07-.06.04-.11-.15-.07.03-.02.2.08.21.16.37,0,.18-.42-.35-.22.33.1.65-.09.03-.01.16.03.23.05.08.07.13-.1.24.23.08-.27.19-.2.28h.08c-.24.03.33.06-.02.09h-.02c-.18.02.42.03.21.04h.09s-.1,0-.13.02c.01,0,.16,0,.11.01-.36,0,.08.05-.33.06,0-.01-.16.02-.24,0-.04,0-.02.04.15.04.18,0,.34.02.48,0h-.13c.13-.01.07,0,.17-.01.02-.03.21-.04.29-.06,0,0,0,0-.01,0-.16-.01-.07-.04-.04-.05h.07c.15-.02-.3-.03-.04-.03-.07-.06-.07-.13-.07-.2-.1,0,0-.05-.19-.03.22-.03.27-.08.27-.1.02,0,.04,0,.04,0,.29-.05-.27-.03.08-.08-.25,0,.08-.06-.22-.07.05,0,.1-.01.15-.01,0-.05.09-.03.11-.03-.22-.05.1.03-.21-.07.06,0,.19.07.07,0l.04.02s-.07-.06-.23-.18c.29.21.24.17.33.24-.14-.11-.1-.09-.22-.22.14.14-.06-.07.14.14-.38-.43-.23-.48.04.02v.02c-.09-.18-.31-.6-.44-.87.02.03.04.08.04.09-.03-.09.15.25.12.18.03.06.03.06.06.12-.08-.18.14.29.01-.02l.05.1-.06-.15c.05.13.1.24.12.29.03.03-.02-.1-.02-.22,0-.09.02-.15.07-.07v.09s0-.16,0-.16c0,.05,0,.07.01.1.04.18.03-.07.06,0,0,.04,0,.13,0,.18.02-.22.01.32.03-.15,0,.02,0,.13,0,.17.04-.12.11-.05.13.04.2-.26.09.04.33-.09l-.05.05c.26-.07.18.2.3.27.02.06.1.04.14.08l-.06.05c.31-.11-.11.32.22.2l-.1.06c.15-.08-.02.08.23-.08l-.07.06c.37-.14-.09.19.17.15l-.06.03c.06,0,.11,0,.06.04,0,0-.03,0-.05.02-.06.05-.08.08-.08.1l-.02.57.34-.64c.03-.05-.13-.11-.12-.16h.13c-.15-.03,0-.09-.07-.14h.06s-.08-.02-.08-.02h.12c.01-.06-.09-.12-.1-.18Z"/>
    <path class="cls-1" d="M2.8,26.44h0s0,0,0,0Z"/>
    <path class="cls-1" d="M1.42,27.61h-.02s.02,0,.02,0Z"/>
  </g>
  <g>
    <polygon class="cls-1" points="50.08 29.94 50.05 29.97 50.15 29.92 50.08 29.94"/>
    <path class="cls-1" d="M50.33,29.9s.04-.03.05-.04c-.09.04-.18.09-.28.12-.12.12.31-.15.22-.08Z"/>
    <path class="cls-1" d="M50.31,29.93c-.04.06.07-.02.11-.05-.09.06,0-.05-.11.05Z"/>
    <path class="cls-1" d="M51.87,30.22h0s0,0,0,0Z"/>
    <path class="cls-1" d="M51.92,29.65l-.07-.09c.09.19-.08.05-.07.15l-.02-.04c-.12.02-.17.23-.33.33,0-.01,0-.04,0-.06,0,.04,0,.11-.02.1,0-.02,0-.05,0-.06-.04-.18-.09.12-.12-.02,0,.02-.02.1-.01.15-.14.04-.29.06-.51.11,0-.03.02-.07.05-.13-.26.21-.38-.02-.44-.17-.06.04-.05.07-.13.11-.03.12.21-.05.15.08l-.06.05c0,.06.13-.14.1-.04-.03.06-.07.07-.06.08.08.03.13.14.28.02-.06.15.07.04.03.19.05-.05.06-.03.11-.12.22.18.5.04.71.02.04-.33.24.02.33-.13v.03c.02-.09.05-.15.11-.13l-.03-.14c.39.09.51-.31.67-.58.17-.34.26-.81-.25-.89.03-.01.04-.02.06-.02-.09-.04-.03-.16-.13-.19l.03-.02c-.31-.01-.19-.33-.51-.29-.1-.17-.28-.31-.47-.4l.05-.04c-.21-.04-.04-.36-.2-.42.05-.19-.48-.12-.36-.36.13-.09.04-.11-.06-.16-.1-.05-.18-.14-.03-.17.25-.06.3-.07.28-.16-.02-.09-.1-.27-.09-.44.14.02.19-.07.3-.13.09-.07.24-.08.32.09.12-.21.14.3.23.25v-.08c-.01.24.17-.3.1.04h0c-.03.19.15-.38.1-.17l.03-.08s-.02.1-.02.14c0,0,.05-.15.05-.1-.1.35.08-.06-.04.33-.01,0-.03.15-.08.23,0,.04.03.03.08-.13.06-.17.12-.32.14-.46l-.05.13c.03-.13.02-.06.04-.16-.02-.03.03-.21.03-.29,0,0,0,0,0,.01-.06.15-.06.05-.06.03l.02-.07c.03-.15-.12.28-.04.03-.09.05-.15.02-.24.01-.03.1-.06-.02-.08.18.02-.22-.03-.29-.06-.28,0-.02,0-.04.01-.03-.01-.29-.08.26-.09-.1-.02.24-.11-.08-.14.21,0-.06,0-.11,0-.15-.11,0-.24-.09-.34-.08-.01.22-.23-.04-.18.25-.07-.04-.22-.1-.22.03v-.03c-.09.04-.15.14-.06.3-.22-.19-.21-.13-.3-.16.07.13-.04.2.03.34-.12-.06.02.09-.15,0,.24.39.11.49-.13.82h-.01c.11.02.35.02.49.02-.02,0-.05.01-.05,0,.04.03-.13.1-.09.13t-.06.01c.09,0-.13.11.03.1l-.05.02h.08c-.06.02-.15.05-.14.03.06.33.49.4.61.63l-.05.03.12-.03s-.04.03-.05.04c-.04.12.14.05.16.12-.02.02-.07.06-.09.09.16-.08-.12.21.16-.03-.01.01-.07.07-.09.09.17,0,.24.09.27.21.31-.14.15.13.41.04l-.05.04c.26-.03.14.22.25.31,0,.06.09.06.12.1l-.07.04c.33-.03-.19.26.15.24l-.11.02c.17-.02-.05.06.24,0l-.08.03c.39.03-.16.13.08.2h-.07c.05.01.09.05.03.06,0,0-.03,0-.05-.01-.28,0,0,.12-.04.2l-.11-.06c.13.1-.03.07,0,.15l-.05-.04.06.07-.1-.08s.01.14-.03.18Z"/>
    <path class="cls-1" d="M51.42,29.99h0s0,0,0,0Z"/>
    <path class="cls-1" d="M52.16,25.38v.03s0-.02,0-.03Z"/>
  </g>
  <g>
    <polygon class="cls-1" points="25.82 47.16 25.78 47.16 25.88 47.21 25.82 47.16"/>
    <path class="cls-1" d="M26.01,47.33s.05.01.07.02l-.26-.15c-.17-.03.31.16.2.13Z"/>
    <path class="cls-1" d="M25.98,47.33c-.07,0,.06.05.1.07-.1-.04.04-.02-.1-.07Z"/>
    <path class="cls-1" d="M26.35,48.92h-.01s0,0,.01,0Z"/>
    <path class="cls-1" d="M26.93,48.81l.07-.09c-.16.12-.09-.07-.19-.04l.03-.03c-.07-.13-.3-.11-.46-.23.01,0,.04-.02.05-.02-.04,0-.1.03-.1.02.02-.01.05-.02.06-.02.16-.11-.15-.05-.02-.13-.02,0-.1.02-.15.04-.09-.13-.16-.28-.29-.46.03,0,.08,0,.14,0-.3-.16-.15-.33-.05-.45-.07-.03-.08,0-.16-.05-.11.02.16.14,0,.15l-.07-.02c-.06.02.18.05.08.06-.07,0-.09-.02-.1-.02,0,.07-.06.15.11.24-.16,0-.01.08-.17.1.06.02.05.04.15.05-.09.27.14.5.24.71.33-.07.07.25.26.28l-.02.02c.09-.02.15,0,.16.06l.12-.07c.04.4.42.39.66.57.28.16.75.38.96-.15.01.03.02.04.02.06.07-.1.21-.03.25-.14l.02.03c.03-.17.12-.23.19-.32.09-.08.15-.18.07-.33.14-.19.17-.47.08-.7h.06c-.14-.16.11-.44-.1-.6-.03-.28-.52-.06-.55-.3.05-.34-.39.18-.35-.14-.04-.54-.44-.31-.64-.02-.09-.09-.2-.02-.27.05-.09.05-.12.11-.29-.01.09.22-.34-.11-.37.09l.07.04c-.23-.06.25.21-.08.1h-.01c-.17-.04.39.17.18.11l.08.03s-.1-.02-.13-.02c0,0,.15.04.1.04-.35-.06.07.06-.33,0,0-.02-.16.01-.24-.04-.04,0-.04.08.14.08.18.02.34.04.48.03h-.13c.13,0,.07-.01.16,0,.02-.02.21,0,.29.01,0,0,0,0-.01,0-.15-.03-.06-.03-.04-.02l.07.02c.15.04-.28-.09-.03-.02-.06-.05-.03-.04-.04-.06-.08-.07.01,0-.13-.13.17.14.22.19.21.18.01.02.03.03.02.03.16.22-.14-.21.05.07-.13-.22.05.07-.08-.19.02.05.05.09.07.13.02,0,.06.07.09.08-.02-.22.06.09.04-.21.03.06.07.19.09.07v.04s.07-.04.11-.22c-.01.29,0,.23,0,.33.04-.13.08-.09.14-.2-.02.13.04-.05,0,.14.19-.34.35-.14.3.15h0c.06-.08.19-.27.28-.38,0,.02-.03.04-.03.04.04-.02-.04.16,0,.14t-.04.05c.07-.06-.05.15.05.04l-.03.04.05-.05c-.04.05-.1.13-.09.11.08.13.43.05.46.26h-.06s.11.01.11.01c-.03,0-.05,0-.06.01-.1.06.1.07.07.12-.03,0-.09,0-.13,0,.17.03-.23.04.13.06-.02,0-.1,0-.13,0,.13.08.08.2,0,.27.28.21-.04.16.13.38l-.05-.04c.09.25-.2.19-.27.28-.06,0-.06.08-.12.11l-.03-.08c-.02.34-.24-.23-.28.12v-.11c0,.17-.06-.06-.05.23l-.02-.09c-.09.39-.12-.18-.23.05l.02-.07s-.07.09-.08.02c0,0,0-.03.02-.05,0-.27-.15-.01-.23-.05l.05-.12c-.09.13-.1-.03-.17.01l.03-.05-.06.07.06-.11s-.15.03-.21,0Z"/>
    <path class="cls-1" d="M26.39,48.39h0s0,0,0,0Z"/>
    <path class="cls-1" d="M27,47.37h-.02s.02,0,.02,0Z"/>
  </g>
  <g>
    <polygon class="cls-1" points="15.71 25.94 15.71 25.9 15.7 26 15.71 25.94"/>
    <path class="cls-1" d="M15.69,26.17s0,.05,0,.07v-.3c0-.17,0,.34,0,.23Z"/>
    <path class="cls-1" d="M15.69,26.14c0-.07,0,.07,0,.12,0-.11,0,.03,0-.12Z"/>
    <path class="cls-1" d="M15.45,26.21s0,0,0,0c0,0,0,0,0,0Z"/>
    <path class="cls-1" d="M15.39,26.68v.11c.01-.2.02,0,.04-.08v.04s.06-.14.09-.23c0,.01,0,.04,0,.06,0-.04,0-.11,0-.1,0,.02,0,.05,0,.06,0,.18.02-.12.02.03,0-.02,0-.1,0-.15.02-.05.05-.08.08-.23,0,.03,0,.08,0,.14.02-.3.04-.18.07-.13,0-.08,0-.08,0-.16,0-.1-.01.19-.02.05v-.08s0,.19,0,.09c0-.06,0-.1,0-.1,0,.03-.02-.04-.03.15,0-.16-.01,0-.01-.16,0,.06,0,.05,0,.16-.03-.09-.07.07-.11.06-.02.32-.04-.06-.06.05,0-.01,0-.02,0-.03,0,.08-.02.12-.02.08v.13c-.05-.28-.1-.08-.15-.2-.05-.08-.1-.31-.15.11,0-.03,0-.05,0-.06-.01.06-.03-.05-.04.02v-.03c-.03.26-.07-.04-.11.25-.04-.03-.09,0-.13.08v-.06c-.03.13-.07-.2-.1-.1-.04-.14-.07.36-.11.17-.02-.31-.05.35-.07.03-.04-.48-.08-.17-.13.12-.04-.17-.08.27-.12-.08-.02.22-.04-.28-.06-.21v.08c0-.24-.02.33-.02-.02v-.02c0-.18,0,.42-.01.21v.09s0-.1,0-.13c0,.01,0,.16,0,.11,0-.36-.01.08-.01-.33,0,0,0-.16,0-.24,0-.04,0-.02,0,.15,0,.18,0,.34,0,.48v-.13c0,.13,0,.07,0,.17,0,.02,0,.21.01.29,0,0,0,0,0-.01,0-.16,0-.06,0-.04v.07c0,.15,0-.3,0-.04.01-.07.03-.06.04-.07,0-.1.01,0,0-.19,0,.22.01.28.02.27,0,.02,0,.04,0,.04,0,.29,0-.27.02.09,0-.25.01.08.02-.21,0,.06,0,.1,0,.15.01,0,.03.1.04.11,0-.22.02.1.03-.2,0,.06.02.19.03.07v.04s.02-.03.03-.22c0,.29,0,.23.01.32,0-.13.02-.09.03-.22,0,.13,0-.06,0,.14.03-.37.07-.24.1.04h0c0-.09,0-.33.01-.46,0,.02,0,.05,0,.05,0-.04.01.15.02.12t0,.06c0-.09.01.15.02,0v.05s0-.07,0-.07c0,.06,0,.16,0,.14.05.06.1-.27.15-.22v.06s0-.11,0-.11c0,.03,0,.05,0,.06.01.11.03-.07.04-.04,0,.03,0,.09,0,.13,0-.17.01.23.02-.14,0,.02,0,.1,0,.13.03-.12.05-.11.08-.05.02-.33.04-.03.07-.29v.07c.03-.23.06.02.09-.03.01.03.02-.05.03-.06v.08c.02-.31.04.28.07-.06v.11c0-.17.01.06.01-.23v.09c.02-.39.03.18.05-.07v.07c0-.05,0-.1.01-.03,0,.01,0,.03,0,.05.01.28.03-.03.05-.02v.13c0-.15.02-.01.03-.08v.06s0-.09,0-.09v.12s.03-.1.04-.11Z"/>
    <path class="cls-1" d="M15.52,26.54s0,0,0,0c0,.01,0,0,0,0Z"/>
    <path class="cls-1" d="M14.22,27.17s0-.01,0-.02c0,.02,0,.02,0,.02Z"/>
  </g>
  <g>
    <polygon class="cls-1" points="17.38 20.95 17.39 20.92 17.35 21.01 17.38 20.95"/>
    <path class="cls-1" d="M17.28,21.16s-.02.05-.02.06l.12-.27c.06-.16-.13.31-.09.21Z"/>
    <path class="cls-1" d="M17.29,21.13c.02-.07-.03.06-.05.11.04-.1,0,.03.05-.11Z"/>
    <path class="cls-1" d="M17.04,21.11s0,0,0,0c0,0,0,0,0,0Z"/>
    <path class="cls-1" d="M16.81,21.53l-.04.1c.08-.18.02.01.07-.06l-.02.04c.01.05.11-.11.17-.18,0,.01-.02.04-.02.05.02-.04.04-.1.04-.09,0,.02-.02.05-.02.06-.06.17.06-.1.01.03,0-.02.04-.09.06-.14.04-.03.08-.06.15-.18,0,.02-.03.07-.05.13.13-.27.11-.15.11-.1.03-.07.03-.08.06-.15.03-.09-.08.17-.04.04l.03-.07s-.07.18-.04.08c.02-.06.04-.09.04-.09-.02.03,0-.04-.08.13.06-.15,0,0,.05-.16-.03.06-.02.04-.06.14,0-.09-.09.04-.12.02-.13.29-.01-.07-.07.02,0-.01,0-.02.01-.03-.03.07-.06.1-.05.06l-.06.12c.06-.27-.06-.11-.06-.23-.02-.09.02-.32-.18.05.01-.03.02-.04.02-.06-.04.05,0-.06-.05,0v-.03c-.12.23-.04-.06-.18.19-.03-.04-.08-.03-.15.03l.02-.06c-.08.11,0-.21-.06-.13.02-.15-.2.31-.16.12.09-.3-.18.31-.08,0,.14-.46-.02-.19-.16.06.03-.17-.17.22-.08-.12-.1.2.07-.27.02-.22l-.03.07c.08-.22-.14.3-.01-.03h0c.06-.18-.16.37-.09.17l-.03.08s.04-.09.05-.13c0,0-.06.15-.04.1.13-.34-.04.07.11-.31,0,0,.05-.15.09-.22.01-.04,0-.02-.06.14-.07.17-.13.32-.18.45l.05-.12c-.05.12-.02.06-.06.16,0,.02-.07.2-.1.27,0,0,0,0,0-.01.06-.15.03-.06.02-.04l-.03.07c-.06.14.12-.28.02-.03.04-.06.05-.05.06-.05.04-.09,0,.01.08-.17-.08.21-.09.26-.08.26,0,.02-.02.04-.01.03-.1.27.11-.24-.02.09.09-.23-.02.08.09-.19-.02.05-.04.1-.05.14,0,0,0,.1,0,.11.09-.2-.02.1.1-.18-.02.06-.05.18,0,.07v.03s.02-.02.1-.2c-.1.27-.08.22-.11.3.06-.12.05-.08.11-.19-.05.12.03-.05-.04.13.16-.34.15-.2.08.07h0c.04-.08.13-.3.19-.43,0,.02-.02.05-.02.04.02-.03-.05.15-.03.12t-.02.06c.04-.08-.05.15.01.01l-.02.05.03-.07c-.02.06-.06.15-.05.13.02.08.19-.21.22-.15l-.02.06.05-.1s-.02.04-.02.06c-.03.11.05-.06.05-.03-.01.03-.04.09-.05.12.07-.16-.07.22.07-.12,0,.02-.04.09-.05.12.07-.1.09-.09.09-.02.14-.3.05-.01.17-.25l-.02.06c.11-.2.05.04.09,0,0,.03.04-.04.05-.04l-.03.08c.13-.28-.06.27.08-.03l-.04.1c.07-.16-.01.06.1-.21l-.03.08c.16-.36-.04.18.07-.05l-.03.06s.05-.09.02-.03c0,0-.01.03-.02.04-.09.26.04-.02.05,0l-.05.12c.06-.14.02,0,.06-.06l-.02.06.04-.08-.04.11s.06-.08.08-.09Z"/>
    <path class="cls-1" d="M16.98,21.44s0,0,0,0c0,0,0,0,0,0Z"/>
    <path class="cls-1" d="M15.54,21.55s0-.01,0-.02c0,.02,0,.02,0,.02Z"/>
  </g>
  <g>
    <polygon class="cls-1" points="40.83 21.72 40.81 21.69 40.87 21.77 40.83 21.72"/>
    <path class="cls-1" d="M40.96,21.91s.03.04.04.05l-.17-.24c-.1-.13.2.27.13.19Z"/>
    <path class="cls-1" d="M40.94,21.89c-.04-.05.04.06.07.1-.06-.09.02.02-.07-.1Z"/>
    <path class="cls-1" d="M40.79,22.09s0,0,0,0c0,0,0,0,0,0Z"/>
    <path class="cls-1" d="M41.03,22.51l.07.09c-.11-.16.02-.01-.02-.09l.02.03c.05.01-.04-.15-.06-.24,0,0,.03.04.03.05-.02-.03-.06-.09-.06-.08.02.02.03.04.04.05.12.14-.06-.1.03,0-.01-.02-.06-.08-.09-.12,0-.05,0-.1-.08-.23.02.02.05.06.09.11-.16-.25-.07-.17-.03-.14-.05-.06-.05-.06-.1-.13-.07-.07.11.16.01.05l-.05-.06s.12.15.05.08c-.04-.05-.06-.08-.06-.08.01.03-.04-.02.07.13-.1-.13-.01,0-.11-.12.04.05.03.04.09.13-.08-.05-.01.1-.05.11.18.26-.07-.03-.02.07,0,0-.01-.02-.02-.03.04.07.06.1.03.07l.08.11c-.2-.19-.12,0-.23-.07-.09-.03-.27-.18-.05.18-.02-.02-.03-.04-.04-.05.03.06-.05-.02-.02.04l-.02-.02c.13.23-.08.02.07.26-.05,0-.07.05-.05.14l-.04-.05c.05.13-.18-.12-.14-.02-.12-.09.16.33.02.2-.21-.23.17.31-.04.07-.33-.36-.17-.08-.03.17-.14-.11.1.26-.14,0,.12.19-.2-.2-.18-.13l.05.06c-.15-.18.19.27-.03,0h0c-.11-.15.25.33.12.16l.05.07s-.06-.08-.09-.1c0,0,.1.13.06.09-.22-.29.04.07-.21-.25,0,0-.1-.12-.15-.19-.03-.03-.02-.01.08.12.11.15.2.27.29.38l-.08-.11c.08.1.04.05.1.13.02.01.13.16.19.22,0,0,0,0,0-.01-.09-.13-.03-.06-.02-.04l.05.06c.1.12-.18-.24-.02-.03-.03-.06-.02-.07,0-.08-.06-.08.01,0-.11-.15.14.17.18.21.18.2.01.02.03.04.02.03.18.22-.15-.22.06.06-.15-.2.06.06-.12-.18.03.04.06.08.09.12.01,0,.08.06.09.06-.13-.18.08.06-.1-.18.04.05.13.14.06.04l.02.03s0-.04-.11-.19c.18.23.15.18.21.25-.08-.11-.04-.09-.11-.19.08.1-.03-.05.09.1-.2-.31-.09-.23.1-.03h0c-.06-.08-.2-.26-.28-.38.01.01.03.04.03.04-.02-.03.1.12.09.08t.04.05c-.05-.07.1.12.02,0l.03.04-.04-.06c.04.05.1.13.08.11.08.02-.08-.27-.01-.27l.04.05-.06-.09s.03.04.04.05c.08.08-.02-.07,0-.06.02.02.05.07.08.1-.1-.14.15.17-.07-.12.01.01.06.08.08.1-.05-.11-.03-.12.03-.09-.18-.27.02-.05-.12-.27l.04.05c-.12-.2.06-.02.05-.08.03.01-.01-.05,0-.06l.05.06c-.17-.26.2.19.01-.09l.07.09c-.1-.14.05.04-.13-.19l.06.07c-.22-.32.13.13,0-.08l.04.06s-.05-.08,0-.03c0,0,.02.02.03.04.18.21,0-.04.03-.04l.08.1c-.09-.13.01-.02-.02-.08l.04.05-.05-.07.07.1s-.04-.09-.04-.11Z"/>
    <path class="cls-1" d="M41.05,22.31s0,0,0,0c0,0,0,0,0,0Z"/>
    <path class="cls-1" d="M40.4,23.6s0-.01-.02-.02c.02.02.01.01.02.02Z"/>
  </g>
  <g>
    <polygon class="cls-1" points="20.76 34.02 20.73 34 20.81 34.05 20.76 34.02"/>
    <path class="cls-1" d="M20.95,34.14s.04.02.06.03l-.25-.15c-.15-.08.29.17.19.12Z"/>
    <path class="cls-1" d="M20.93,34.13c-.06-.03.06.04.1.06-.09-.05.03.01-.1-.06Z"/>
    <path class="cls-1" d="M20.87,34.38s0,0,0,0c0,0,0,0,0,0Z"/>
    <path class="cls-1" d="M21.24,34.67l.1.06c-.17-.11.02-.02-.05-.07l.03.02c.05,0-.09-.12-.15-.19,0,0,.04.02.05.03-.03-.02-.09-.06-.08-.05.02.01.04.03.05.03.16.09-.09-.07.03,0-.02-.01-.08-.05-.13-.08-.03-.04-.05-.09-.16-.18.02.01.07.04.12.07-.25-.17-.13-.13-.08-.12-.07-.04-.07-.04-.14-.08-.09-.04.16.11.03.04l-.07-.04s.16.1.08.05c-.06-.03-.08-.05-.09-.05.02.02-.04,0,.11.1-.14-.08-.01,0-.15-.07.05.03.04.03.13.08-.09-.01.03.1,0,.12.27.17-.07,0,.01.07,0,0-.02-.01-.03-.02.06.04.09.07.05.06l.11.07c-.26-.1-.12.04-.24.02-.1,0-.32-.07.02.19-.03-.02-.04-.02-.05-.03.05.04-.06,0,0,.05l-.03-.02c.21.16-.07.05.16.22-.04.02-.04.08,0,.15l-.05-.03c.1.1-.21-.04-.14.04-.14-.04.28.24.09.18-.28-.13.28.22,0,.08-.44-.2-.19-.01.04.17-.17-.05.19.2-.13.06.19.13-.26-.11-.21-.06l.07.04c-.21-.11.28.18-.03,0h-.01c-.16-.09.36.21.17.1l.08.04s-.09-.05-.12-.06c0,0,.14.08.09.06-.31-.18.06.05-.29-.15,0,0-.14-.07-.21-.12-.04-.02-.02,0,.13.08.16.09.29.17.42.24l-.11-.07c.12.06.06.03.14.08.02,0,.19.1.26.13,0,0,0,0-.01,0-.14-.08-.05-.04-.03-.03l.06.04c.14.08-.26-.16-.03-.02-.05-.04-.04-.05-.04-.07-.09-.05.01,0-.16-.1.19.11.25.13.24.12.02.01.04.02.03.02.25.14-.23-.14.08.03-.21-.12.08.03-.18-.12.05.03.09.05.13.07.01,0,.1.02.11.02-.18-.12.1.03-.16-.13.06.03.17.08.07.01l.03.02s-.02-.04-.18-.14c.25.14.2.11.29.15-.11-.07-.07-.06-.17-.13.12.06-.04-.04.12.06-.31-.21-.18-.18.08-.06h.01c-.09-.05-.29-.17-.41-.24.01,0,.04.02.04.02-.03-.02.14.07.11.04t.05.03c-.07-.05.14.07.01-.01l.04.03-.06-.04c.06.03.14.08.12.07.08-.01-.18-.22-.12-.24l.05.03-.09-.06s.04.02.05.03c.1.04-.05-.06-.02-.05.03.02.08.05.11.06-.15-.09.2.1-.11-.08.01,0,.09.05.11.06-.09-.08-.07-.1,0-.09-.27-.18,0-.05-.22-.2l.06.03c-.18-.14.04-.04.02-.09.03,0-.03-.04-.03-.06l.07.04c-.26-.17.26.1-.02-.09l.1.06c-.15-.09.06.02-.2-.13l.08.04c-.33-.21.17.07-.04-.07l.06.04s-.08-.06-.02-.03c0,0,.03.02.04.03.25.12,0-.04,0-.05l.11.07c-.13-.08,0-.02-.05-.07l.05.03-.07-.05.11.06s-.07-.07-.08-.09Z"/>
    <path class="cls-1" d="M21.19,34.48s0,0,0,0c0,0,0,0,0,0Z"/>
    <path class="cls-1" d="M21.09,35.92s-.01,0-.02-.01c.02.01.02,0,.02.01Z"/>
  </g>
  <g>
    <polygon class="cls-1" points="16.35 30.37 16.33 30.34 16.38 30.43 16.35 30.37"/>
    <path class="cls-1" d="M16.47,30.57s.03.04.04.06l-.16-.25c-.1-.14.19.28.12.19Z"/>
    <path class="cls-1" d="M16.45,30.54c-.04-.06.04.06.06.1-.06-.09.02.02-.06-.1Z"/>
    <path class="cls-1" d="M16.29,30.74s0,0,0,0c0,0,0,0,0,0Z"/>
    <path class="cls-1" d="M16.5,31.16l.06.09c-.1-.17.02-.01-.02-.09l.02.03c.05.02-.03-.15-.05-.24,0,.01.02.04.03.05-.02-.03-.06-.09-.05-.09.01.02.03.04.03.05.11.15-.05-.11.03,0,0-.02-.05-.08-.09-.13,0-.05,0-.1-.06-.23.02.02.04.06.08.11-.15-.26-.06-.17-.02-.15-.04-.07-.05-.07-.09-.14-.06-.08.1.17.01.05l-.04-.06s.11.16.05.08c-.04-.05-.05-.08-.06-.08,0,.03-.04-.02.06.14-.09-.13-.01,0-.1-.13.03.05.02.04.08.13-.08-.05-.02.1-.05.11.16.27-.06-.03-.02.07,0,0-.01-.02-.02-.03.04.07.05.1.02.08l.07.11c-.19-.2-.12-.02-.23-.08-.09-.04-.26-.2-.06.18-.02-.03-.03-.04-.03-.05.02.06-.05-.03-.03.04l-.02-.03c.12.24-.08.01.05.26-.05,0-.07.05-.06.14l-.04-.05c.05.13-.17-.13-.14-.02-.11-.1.14.34,0,.2-.19-.24.16.32-.04.07-.31-.37-.17-.09-.04.17-.13-.12.09.27-.14,0,.11.2-.19-.21-.17-.14l.04.06c-.14-.19.17.28-.03,0h0c-.1-.16.23.34.11.16l.05.07s-.06-.08-.08-.11c0,0,.09.13.06.09-.2-.3.03.07-.19-.26,0,0-.09-.13-.13-.2-.02-.03-.02-.01.08.13.1.15.19.28.27.4l-.07-.11c.08.11.04.05.09.14.02.01.12.17.17.23,0,0,0,0,0-.01-.09-.13-.03-.06-.02-.04l.04.06c.09.13-.16-.25-.02-.03-.03-.06-.01-.07,0-.08-.06-.08.01,0-.1-.16.13.18.17.22.17.21.01.02.02.04.02.03.17.23-.14-.22.06.06-.14-.21.06.06-.11-.19.03.05.06.09.08.12.01,0,.08.06.09.07-.12-.19.07.07-.09-.18.04.05.12.15.06.04l.02.03s0-.04-.1-.2c.16.24.14.19.19.26-.07-.11-.04-.09-.1-.2.08.11-.02-.05.08.11-.19-.32-.08-.24.1-.02h0c-.06-.08-.18-.27-.26-.39,0,.01.03.04.03.04-.02-.03.1.12.08.09t.03.05c-.04-.07.1.12.02,0l.03.04-.04-.06c.04.05.09.13.08.12.08.02-.07-.28,0-.27l.03.05-.05-.1s.03.04.03.05c.07.08-.02-.07,0-.06.02.03.05.08.07.11-.09-.15.14.18-.06-.12,0,.01.06.08.07.11-.05-.11-.02-.12.03-.09-.17-.28.02-.05-.11-.28l.04.05c-.11-.2.06-.02.06-.07.02.01-.01-.05,0-.06l.05.07c-.16-.27.19.21.02-.09l.06.09c-.09-.14.04.04-.12-.2l.05.07c-.21-.33.12.13,0-.09l.04.06s-.05-.09,0-.04c0,0,.02.03.03.04.17.22,0-.04.03-.04l.07.11c-.08-.13.01-.02-.02-.08l.03.05-.04-.07.07.1s-.03-.09-.03-.11Z"/>
    <path class="cls-1" d="M16.53,30.97s0,0,0,0c0,0,0,0,0,0Z"/>
    <path class="cls-1" d="M15.81,32.23s0-.01-.02-.02c.01.02.01.02.02.02Z"/>
  </g>
  <g>
    <polygon class="cls-1" points="38.72 32.42 38.69 32.44 38.78 32.39 38.72 32.42"/>
    <path class="cls-1" d="M38.93,32.31s.04-.03.06-.04l-.26.15c-.14.09.29-.17.2-.11Z"/>
    <path class="cls-1" d="M38.9,32.33c-.06.04.06-.03.1-.06-.09.06.03-.02-.1.06Z"/>
    <path class="cls-1" d="M39.09,32.5s0,0,0,0c0,0,0,0,0,0Z"/>
    <path class="cls-1" d="M39.53,32.3l.09-.06c-.17.09-.01-.02-.09.01l.03-.02s-.15.02-.24.04c.01,0,.04-.02.05-.03-.03.02-.1.05-.09.05.02-.01.04-.03.05-.03.15-.1-.11.04,0-.03-.02,0-.08.05-.13.08-.05,0-.1,0-.23.05.02-.01.06-.04.12-.07-.26.14-.18.06-.15.01-.07.04-.07.05-.14.09-.08.06.17-.09.05,0l-.06.04s.16-.1.08-.04c-.05.03-.08.05-.09.05.03,0-.02.04.14-.05-.14.09,0,.01-.13.1.06-.03.04-.02.14-.08-.06.07.1.02.11.06.28-.15-.03.06.07.02,0,0-.02.01-.03.02.07-.04.11-.05.08-.02l.12-.06c-.21.18-.02.12-.09.22-.04.09-.21.25.17.07-.03.02-.04.03-.05.03.06-.02-.03.05.04.03l-.03.02c.24-.11,0,.08.27-.04,0,.05.05.07.14.07l-.05.03c.13-.04-.13.16-.03.14-.1.11.35-.13.2,0-.25.18.33-.14.07.04-.39.29-.1.16.17.05-.13.12.27-.07,0,.14.2-.1-.22.18-.15.16l.07-.04c-.2.13.29-.16,0,.03h-.01c-.15.1.36-.2.18-.09l.08-.05s-.08.05-.11.07c.01,0,.14-.08.1-.05-.31.19.07-.03-.27.18,0,0-.13.09-.21.13-.03.02-.01.02.13-.07.16-.1.29-.18.41-.25l-.11.07c.11-.07.06-.04.14-.09.01-.01.18-.12.24-.16,0,0,0,0-.01,0-.14.08-.06.03-.04.01l.06-.04c.13-.08-.26.15-.03.01-.06.02-.07,0-.08,0-.09.05,0-.01-.16.09.19-.12.23-.16.22-.16.02-.01.04-.02.03-.02.24-.16-.23.13.06-.06-.21.13.06-.05-.19.1.05-.03.09-.06.13-.08,0-.01.07-.07.07-.09-.19.11.07-.07-.19.08.05-.04.15-.11.04-.06l.03-.02s-.04,0-.21.09c.24-.15.19-.13.27-.18-.12.06-.09.03-.2.09.11-.07-.05.02.11-.08-.33.17-.24.07-.02-.1h.01c-.09.05-.29.16-.41.23.01,0,.04-.03.04-.02-.03.01.13-.09.09-.08t.05-.03c-.08.04.13-.09,0-.02l.04-.03-.06.03c.05-.03.14-.08.12-.07.03-.07-.28.06-.27-.01l.05-.03-.1.05s.04-.02.05-.03c.09-.07-.07.02-.06,0,.03-.02.08-.05.11-.07-.15.08.18-.13-.13.05.01,0,.08-.05.11-.07-.12.04-.12.02-.09-.04-.29.15-.05-.02-.28.1l.06-.03c-.21.1-.02-.06-.07-.06.02-.02-.05,0-.06,0l.07-.04c-.27.14.21-.18-.09-.02l.09-.06c-.15.09.04-.04-.2.11l.07-.05c-.34.19.14-.12-.09,0l.06-.04s-.09.04-.04,0c0,0,.03-.02.04-.02.23-.16-.04-.01-.04-.03l.11-.07c-.13.07-.02-.01-.08.02l.05-.03-.08.04.1-.06s-.1.03-.12.03Z"/>
    <path class="cls-1" d="M39.34,32.26s0,0,0,0c0,0,0,0,0,0Z"/>
    <path class="cls-1" d="M40.55,33.04s-.01,0-.02.01c.02-.01.02-.01.02-.01Z"/>
  </g>
  <g>
    <polygon class="cls-1" points="33.41 34.55 33.37 34.55 33.48 34.54 33.41 34.55"/>
    <path class="cls-1" d="M33.64,34.54s.05,0,.07,0l-.3.02c-.17.02.34-.03.23-.01Z"/>
    <path class="cls-1" d="M33.61,34.54c-.07,0,.07,0,.12,0-.11,0,.03,0-.12,0Z"/>
    <path class="cls-1" d="M33.71,34.78s0,0,0,0c0,0,0,0,0,0Z"/>
    <path class="cls-1" d="M34.18,34.79h.11c-.2,0,0-.04-.09-.04h.04s-.15-.05-.23-.07c.01,0,.04,0,.06,0-.04,0-.11,0-.1,0,.02,0,.05,0,.06,0,.18-.02-.12,0,.02-.03-.02,0-.1,0-.15.01-.05-.02-.09-.04-.23-.05.02,0,.07,0,.14-.01-.3,0-.18-.03-.14-.05-.08,0-.08.01-.16.02-.1.02.19,0,.05.01h-.08s.19-.01.09,0c-.06,0-.1,0-.1.01.03,0-.03.02.15.01-.16.02,0,.01-.16.03.06,0,.05,0,.16,0-.08.04.08.06.07.1.32-.01-.06.04.05.05-.01,0-.02,0-.03,0,.08,0,.12,0,.08.02h.13c-.27.07-.07.09-.18.15-.07.06-.3.13.12.14-.03,0-.05,0-.06,0,.07,0-.05.03.02.04h-.03c.26.01-.03.08.26.08-.02.04,0,.09.09.12h-.06c.14.03-.19.09-.09.12-.14.05.37.04.18.09-.31.05.36.02.04.07-.48.09-.16.1.13.12-.17.06.28.05-.07.13.23,0-.27.07-.21.08h.08c-.23.02.33-.03-.02.01h-.02c-.18.02.42-.03.21,0h.09s-.1,0-.13,0c.01,0,.16-.02.11,0-.36.04.08,0-.32.04,0,0-.16.02-.24.02-.04,0-.02.01.15,0,.18-.02.34-.03.48-.05h-.13c.13,0,.07,0,.17,0,.02,0,.21-.03.29-.04,0,0,0,0-.01,0-.16.01-.07,0-.04,0h.07c.15-.03-.3.01-.04,0-.07,0-.07-.02-.07-.03-.1,0,0-.01-.19.01.22-.03.28-.04.27-.04.02,0,.04,0,.04,0,.29-.04-.27.02.08-.02-.25.02.08-.02-.21,0,.05,0,.1-.01.15-.02,0-.01.09-.04.1-.05-.22.01.1-.03-.2,0,.06-.01.19-.04.07-.03h.04s-.04-.02-.22-.01c.29-.03.23-.03.32-.04-.13,0-.1-.01-.22,0,.13-.01-.06,0,.14-.02-.37,0-.25-.04.03-.1h.01c-.11,0-.34.02-.48.03.02,0,.05,0,.05,0-.04,0,.15-.03.12-.03t.06,0c-.09,0,.15-.03,0-.02h.05s-.07,0-.07,0c.06,0,.16-.02.14-.01.06-.06-.28-.07-.23-.13h.06s-.11,0-.11,0c.03,0,.05,0,.06,0,.11-.02-.07-.02-.05-.03.03,0,.09,0,.13-.01-.17,0,.22-.04-.14,0,.02,0,.1-.01.13-.01-.12-.01-.12-.04-.06-.07-.33.01-.04-.04-.3-.04h.06c-.23-.01,0-.07-.04-.09.02-.01-.05-.02-.06-.03h.08c-.31,0,.27-.08-.07-.07h.11c-.17,0,.06-.03-.23,0h.09c-.39.01.18-.06-.08-.05h.07c-.05,0-.1,0-.03-.02.01,0,.03,0,.05,0,.27-.04-.03-.03-.02-.05h.13c-.15,0-.01-.03-.08-.03h.06s-.09,0-.09,0h.12s-.1-.03-.12-.04Z"/>
    <path class="cls-1" d="M34.03,34.68s0,0,0,0c.01,0,0,0,0,0Z"/>
    <path class="cls-1" d="M34.79,35.91s-.01,0-.02,0c.02,0,.02,0,.02,0Z"/>
  </g>
  <g>
    <polygon class="cls-1" points="27.14 35.44 27.1 35.44 27.2 35.44 27.14 35.44"/>
    <path class="cls-1" d="M27.37,35.45s.05,0,.07,0h-.3c-.17,0,.34,0,.23,0Z"/>
    <path class="cls-1" d="M27.34,35.45c-.07,0,.07,0,.12,0-.11,0,.03,0-.12,0Z"/>
    <path class="cls-1" d="M27.41,35.75s0,0,0,0c0,0,0,0,0,0Z"/>
    <path class="cls-1" d="M27.88,35.83h.11c-.2-.01,0-.03-.08-.05h.04s-.14-.07-.23-.11c.01,0,.04,0,.06,0-.04,0-.11,0-.1,0,.02,0,.05,0,.06,0,.18,0-.12-.02.03-.03-.02,0-.1,0-.15,0-.05-.03-.08-.06-.23-.09.03,0,.08,0,.14,0-.3-.03-.18-.05-.13-.08-.08,0-.08,0-.16,0-.1,0,.19.02.05.02h-.08s.19,0,.09,0c-.06,0-.1,0-.1,0,.03.01-.04.02.15.04-.16,0,0,.01-.16.02.06,0,.05,0,.16,0-.09.04.07.09.06.13.32.02-.06.04.05.07-.01,0-.02,0-.03,0,.08,0,.12.02.08.03h.13c-.28.06-.08.12-.2.18-.08.06-.31.12.11.18-.03,0-.05,0-.06,0,.06.02-.05.03.02.05h-.03c.26.04-.04.09.25.13-.03.05,0,.11.08.16h-.06c.13.04-.2.08-.1.13-.14.04.36.09.17.13-.31.03.35.06.03.09-.48.05-.17.1.12.16-.17.05.27.1-.08.14.22.02-.28.05-.21.07h.08c-.24,0,.33.02-.02.02h-.02c-.18,0,.42,0,.21.01h.09s-.1,0-.14,0c.01,0,.16,0,.11,0-.36,0,.08.01-.33.01,0,0-.16,0-.24,0-.04,0-.02.01.15.01.18,0,.34,0,.48,0h-.13c.13,0,.07,0,.17,0,.02,0,.21,0,.29-.01,0,0,0,0-.01,0-.16,0-.06,0-.04-.01h.07c.15,0-.3,0-.04,0-.07-.02-.06-.03-.07-.05-.1,0,0-.01-.19,0,.22,0,.28-.02.27-.02.02,0,.04,0,.04,0,.29,0-.27-.01.09-.02-.25,0,.08-.02-.21-.02.06,0,.11,0,.15,0,0-.02.1-.03.11-.05-.22-.01.1-.03-.2-.04.06,0,.19-.02.07-.03h.04s-.03-.03-.22-.04c.29,0,.23,0,.32-.01-.13,0-.09-.03-.22-.04.13,0-.06-.01.14-.01-.37-.04-.24-.08.04-.12h.01c-.11,0-.34-.01-.48-.02.02,0,.05,0,.05,0-.04,0,.15-.01.12-.02t.06,0c-.09,0,.15-.01,0-.02h.05s-.07,0-.07,0c.06,0,.16,0,.14,0,.06-.06-.27-.12-.22-.18h.06s-.11,0-.11,0c.03,0,.05,0,.06,0,.11-.02-.07-.03-.04-.05.03,0,.09,0,.13,0-.17-.01.23-.02-.14-.02.02,0,.1,0,.13,0-.12-.03-.11-.06-.05-.09-.33-.03-.03-.05-.29-.08h.07c-.23-.03.02-.07-.03-.11.03-.01-.05-.02-.06-.04h.08c-.31-.03.28-.05-.06-.08h.11c-.17,0,.06-.01-.23-.01h.09c-.39-.02.18-.04-.07-.06h.07c-.05,0-.1-.01-.03-.02.01,0,.03,0,.05,0,.28-.02-.03-.04-.02-.06h.13c-.15,0-.01-.02-.08-.04h.06s-.09,0-.09,0h.12s-.1-.03-.11-.05Z"/>
    <path class="cls-1" d="M27.74,35.67s0,0,0,0c.01,0,0,0,0,0Z"/>
    <path class="cls-1" d="M28.37,37.25s-.01,0-.02,0c.02,0,.02,0,.02,0Z"/>
  </g>
  <g>
    <polygon class="cls-1" points="41.28 28.19 41.28 28.23 41.28 28.12 41.28 28.19"/>
    <path class="cls-1" d="M41.29,27.96s0-.05,0-.07v.3c0,.17,0-.34,0-.23Z"/>
    <path class="cls-1" d="M41.3,27.99c0,.07,0-.07,0-.12,0,.11,0-.03,0,.12Z"/>
    <path class="cls-1" d="M41.59,27.92s0,0,0,0c0,0,0,0,0,0Z"/>
    <path class="cls-1" d="M41.67,27.45v-.11c-.01.2-.03,0-.05.08v-.04s-.07.14-.11.23c0-.01,0-.04,0-.06,0,.04,0,.11,0,.1,0-.02,0-.05,0-.06,0-.18-.02.12-.03-.03,0,.02,0,.1,0,.15-.03.05-.06.08-.09.23,0-.03,0-.08,0-.14-.03.3-.05.18-.08.13,0,.08,0,.08,0,.16,0,.1.02-.19.02-.05v.08s0-.19,0-.09c0,.06,0,.1,0,.1.01-.03.02.04.04-.15,0,.16.01,0,.02.16,0-.06,0-.05,0-.16.04.09.09-.07.13-.06.02-.32.04.06.07-.05,0,.01,0,.02,0,.03,0-.08.02-.12.03-.08v-.13c.06.28.12.08.18.2.06.08.12.31.18-.11,0,.03,0,.05,0,.06.02-.06.03.05.05-.02v.03c.04-.26.09.04.13-.25.05.03.11,0,.16-.08v.06c.04-.13.08.2.13.1.04.14.09-.36.13-.17.03.31.06-.35.09-.03.05.48.1.17.16-.12.05.17.1-.27.14.08.02-.22.05.28.07.21v-.08c0,.24.02-.33.02.02v.02c0,.18,0-.42.01-.21v-.09s0,.1,0,.13c0-.01,0-.16,0-.11,0,.36.01-.08.01.33,0,0,0,.16,0,.24,0,.04.01.02.01-.15,0-.18,0-.34,0-.48v.13c0-.13,0-.07,0-.17,0-.02,0-.21-.01-.29,0,0,0,0,0,.01,0,.16,0,.06-.01.04v-.07c0-.15,0,.3,0,.04-.02.07-.03.06-.05.07,0,.1-.01,0,0,.19,0-.22-.02-.28-.02-.27,0-.02,0-.04,0-.04,0-.29-.01.27-.02-.09,0,.25-.02-.08-.02.21,0-.06,0-.1,0-.15-.02,0-.03-.1-.05-.11-.01.22-.03-.1-.04.2,0-.06-.02-.19-.03-.07v-.04s-.03.03-.04.22c0-.29,0-.23-.01-.32,0,.13-.03.09-.04.22,0-.13-.01.06-.01-.14-.04.37-.08.24-.12-.04h0c0,.09-.01.33-.02.46,0-.02,0-.05,0-.05,0,.04-.01-.15-.02-.12t0-.06c0,.09-.01-.15-.02,0v-.05s0,.07,0,.07c0-.06,0-.16,0-.14-.06-.06-.12.27-.18.22v-.06s0,.11,0,.11c0-.03,0-.05,0-.06-.02-.11-.03.07-.05.04,0-.03,0-.09,0-.13-.01.17-.02-.23-.02.14,0-.02,0-.1,0-.13-.03.12-.06.11-.09.05-.03.33-.05.03-.08.29v-.07c-.03.23-.07-.02-.11.03-.01-.03-.02.05-.04.06v-.08c-.03.31-.05-.28-.08.06v-.11c0,.17-.01-.06-.01.23v-.09c-.02.39-.04-.18-.06.07v-.07c0,.05-.01.1-.02.03,0-.01,0-.03,0-.05-.02-.28-.04.03-.06.02v-.13c0,.15-.02.01-.04.08v-.06s0,.09,0,.09v-.12s-.03.1-.05.11Z"/>
    <path class="cls-1" d="M41.51,27.59s0,0,0,0c0-.01,0,0,0,0Z"/>
    <path class="cls-1" d="M43.09,26.96s0,.01,0,.02c0-.02,0-.02,0-.02Z"/>
  </g>
  <g>
    <polygon class="cls-1" points="13.16 15.3 13.13 15.27 13.17 15.37 13.16 15.3"/>
    <path class="cls-1" d="M13.2,15.55s.03.04.04.06l-.11-.28c-.1-.13.14.31.07.22Z"/>
    <path class="cls-1" d="M13.17,15.53c-.05-.05.01.07.03.12-.05-.1.05.01-.03-.12Z"/>
    <path class="cls-1" d="M11.81,16.51h0s0,0,0,0Z"/>
    <path class="cls-1" d="M11.76,17.15l.07.09c-.06-.2.13-.1.14-.22l.02.03c.2-.09.24-.35.36-.55,0,.01.02.04.03.05-.01-.04-.04-.1-.03-.1.02.02.03.04.03.06.14.13.04-.17.15-.07,0-.02-.04-.09-.08-.13.11-.13.24-.26.31-.48.02.02.05.06.08.11-.03-.33.16-.31.32-.35-.03-.07-.06-.06-.08-.14-.09-.06.02.21-.09.11l-.03-.07c-.05-.02.09.17.01.1-.04-.05-.05-.08-.06-.09-.04.06-.14.04-.1.23-.1-.13-.07.03-.17-.09.02.06,0,.06.05.15-.25.06-.37.33-.57.46.09.33-.24.1-.29.27l-.02-.03c.01.09-.02.16-.08.16l.05.13c-.41-.02-.55.33-.86.47-.33.18-.73.27-.67.81-.02-.02-.04-.03-.04-.05-.02.12-.17.12-.18.23l-.02-.02c.04.35-.35.37-.27.72-.19.2-.34.49-.42.78l-.05-.03c0,.27-.41.3-.42.57-.24.17.12.6-.14.75-.34.04.21.44-.13.47-.55.14-.33.52-.09.85-.23.23.19.55-.19.76.2.14-.29.23-.24.38h.08c-.24.04.33.12-.03.14h-.02c-.18.02.42.07.2.08h.09s-.1,0-.14.03c.01,0,.16,0,.11.02-.36,0,.07.08-.33.07,0-.02-.16.03-.24-.01-.04.01-.02.07.15.06.18,0,.34.03.48,0h-.13c.13-.02.07-.01.17-.02.02-.04.21-.04.29-.07,0,0,0,0-.01,0-.16-.02-.06-.05-.04-.06h.07c.16,0-.3-.06-.04-.04-.06-.08-.06-.17-.06-.26-.1-.02.01-.07-.18-.06.22,0,.28-.07.27-.09.02,0,.04,0,.04,0,.29-.02-.26-.08.1-.09-.25-.03.09-.07-.2-.13.06,0,.11,0,.15.01.02-.08.11-.15.13-.22-.21-.09.11-.12-.18-.22.07-.03.21-.07.1-.15h.04c0-.05,0-.13-.18-.22.29.04.23,0,.33,0-.12-.07-.07-.15-.17-.24.13.02-.04-.07.15-.02-.31-.27-.12-.48.21-.56h.01c-.1-.05-.3-.16-.42-.23.02,0,.05.01.04.02-.02-.05.17-.01.15-.06t.06.03c-.07-.06.17-.01.04-.1l.05.02-.06-.05c.06.02.15.06.12.07.17-.26,0-.69.21-.96l.05.04-.06-.11s.04.03.05.04c.13-.02.02-.18.08-.23.03.02.07.06.11.07-.12-.14.24.04-.05-.18.02,0,.09.05.11.07-.01-.2.09-.34.22-.44-.19-.3.15-.25.03-.52l.05.04c-.07-.3.26-.29.35-.47.07-.04.05-.14.1-.2l.06.05c-.13-.31.4-.01.26-.35l.07.09c-.11-.14.1-.02-.11-.22l.08.05c-.2-.35.25,0,.17-.26l.04.06c-.01-.06-.01-.12.05-.09,0,0,.02.02.03.04.26.14.14-.16.22-.23l.08.11c-.06-.15.1-.1.11-.2l.04.05-.03-.09.08.09c.07-.05.07-.18.12-.25Z"/>
    <path class="cls-1" d="M12.38,16.51h0s0,0,0,0Z"/>
    <path class="cls-1" d="M8.77,23.79h-.03s.02,0,.03,0Z"/>
  </g>
  <g>
    <polygon class="cls-1" points="14.8 16.45 14.84 16.45 14.74 16.46 14.8 16.45"/>
    <path class="cls-1" d="M14.57,16.47s-.05.01-.07.01l.29-.04c.16-.04-.34.05-.23.03Z"/>
    <path class="cls-1" d="M14.6,16.46c.07-.02-.07,0-.12.01.11-.02-.03.02.12-.01Z"/>
    <path class="cls-1" d="M14.4,16.08h0s0,0,0,0Z"/>
    <path class="cls-1" d="M13.94,16.21l-.1.05c.18-.08.01.03.09,0l-.04.02c-.02.05.16,0,.26.01-.01,0-.04.02-.05.02.04-.01.1-.04.1-.03-.02,0-.05.02-.06.02-.17.08.12-.02-.01.04.02,0,.09-.03.15-.05.06.02.1.04.25.05-.02,0-.07.02-.13.04.3-.05.19.03.15.08.08-.02.08-.02.16-.03.09-.03-.19.02-.06-.03l.07-.02s-.19.04-.09,0c.06-.01.09-.02.1-.02-.03-.01.03-.05-.16-.02.16-.05,0-.02.15-.07-.06.01-.05,0-.15.03.06-.09-.11-.1-.12-.15-.3.1.03-.08-.08-.07h.03c-.07,0-.11.01-.08-.01l-.12.05c.21-.19,0-.16.07-.28.03-.11.17-.31-.21-.12.03-.02.04-.03.05-.03-.06.02.02-.06-.05-.04l.03-.02c-.24.12-.03-.1-.28.04-.01-.06-.07-.09-.17-.08l.05-.04c-.13.05.1-.2,0-.17.08-.13-.34.16-.22,0,.22-.22-.32.17-.09-.05.34-.34.07-.19-.2-.06.11-.14-.28.07-.03-.18-.2.1.2-.2.14-.18l-.07.04c.2-.13-.29.16,0-.03h.01c.15-.1-.37.2-.19.09l-.08.04s.09-.05.11-.07c-.01,0-.14.08-.1.05.31-.18-.08.03.27-.18,0,0,.14-.08.21-.12.03-.02.01-.02-.14.07-.16.09-.3.17-.42.24l.12-.07c-.11.07-.06.03-.14.09-.01.02-.18.11-.24.16,0,0,0,0,.01,0,.14-.08.06-.02.04,0l-.06.04c-.13.08.27-.15.04-.01.07-.02.08,0,.09.02.09-.05,0,.02.16-.09-.18.12-.22.17-.21.17-.02.01-.04.02-.03.02-.23.17.23-.14-.06.07.21-.14-.05.06.19-.1-.05.03-.09.06-.12.09,0,.02-.05.09-.05.11.19-.11-.06.09.19-.08-.05.05-.14.13-.03.07l-.03.02s.05,0,.2-.1c-.23.18-.18.15-.25.21.11-.07.09-.03.2-.1-.1.08.05-.02-.1.09.32-.2.25-.08.06.13h-.01c.08-.06.27-.2.38-.28-.01.01-.04.03-.04.03.03-.02-.11.11-.08.09t-.05.04c.07-.05-.11.11.01.02l-.04.03.06-.04s-.12.1-.11.09c0,.09.29-.07.3.01l-.05.04.09-.06s-.04.03-.05.04c-.07.08.08-.02.07,0-.02.02-.07.06-.1.08.14-.1-.16.16.12-.07-.01.01-.08.06-.1.08.11-.05.13-.02.1.04.27-.18.06.02.28-.11l-.05.04c.2-.11.03.07.09.07-.01.03.06,0,.07,0l-.07.05c.27-.16-.2.2.1.03l-.09.06c.14-.09-.04.05.2-.12l-.07.05c.33-.2-.13.13.09,0l-.06.04s.09-.04.04,0c0,0-.03.02-.04.02-.22.16.04.02.05.04l-.11.06c.14-.07.02.02.09,0l-.05.03.08-.04-.11.06s.1-.02.12-.01Z"/>
    <path class="cls-1" d="M14.14,16.31h0s0,0,0,0Z"/>
    <path class="cls-1" d="M12.61,15.24h.02s-.02,0-.02,0Z"/>
  </g>
  <g>
    <polygon class="cls-1" points="13.15 15.55 13.16 15.59 13.15 15.48 13.15 15.55"/>
    <path class="cls-1" d="M13.15,15.31s0-.05-.01-.07l.02.3c.04.16-.04-.34,0-.23Z"/>
    <path class="cls-1" d="M13.17,15.34c.02.07,0-.07,0-.12.02.11-.02-.03,0,.12Z"/>
    <path class="cls-1" d="M13.83,15.11h0s0,0,0,0Z"/>
    <path class="cls-1" d="M14.08,14.55l.04-.13c-.11.23-.09.02-.16.13v-.04c-.11-.01-.23.22-.29.32,0-.01,0-.04,0-.06,0,.04.01.11,0,.1,0-.02-.01-.05-.01-.06-.06-.17-.03.13-.08,0,0,.02.02.1.03.15-.07.07-.14.12-.2.28,0-.02-.02-.07-.03-.13,0,.31-.12.21-.2.17.01.08.02.08.03.16.04.09.01-.2.06-.06v.07s-.02-.19.01-.1c.02.06.02.09.02.1.03-.04.08.02.08-.17.04.16.04,0,.09.15,0-.07,0-.05-.01-.16.12.06.26-.14.3-.14-.01-.33.06.05.08-.07v.03c.01-.09.04-.13.04-.09l.04-.15c.01.28.15.04.16.16.05.08-.31.39.39-.19-.05.04-.07.07-.09.08.13-.09-.03.07.1-.03l-.05.04c.55-.37.04.05.72-.33h0c-.02.1-.04.19.05.22l-.13.06c.2,0-.5.3-.36.28-.15.07-.02.05.07.07.1.01.16.05-.01.11-.46.06.35.12-.12.17-.64.02-.3.08-.17.4-.23.04.13.3-.23.29.2.1-.3.06-.24.17h.08c-.24.03.33.06-.02.08h-.02c-.18.02.42,0,.21.02h.09s-.1,0-.13.02c.01,0,.16-.01.11,0-.36.05.08.02-.32.08,0-.01-.15.04-.24.03-.04.01-.02.05.15.02.18-.03.34-.05.47-.09l-.13.02c.13-.03.07-.01.16-.03.02-.02.21-.05.29-.06,0,0,0,0-.01,0-.16.02-.07,0-.04,0h.07c.15-.02-.3,0-.04-.01-.07-.01-.06-.03-.06-.05-.1-.01.01-.02-.18-.04.22.02.27.02.27.02.02,0,.04,0,.03,0,.28.06-.25-.07.09,0-.24-.07.08.01-.2-.08.05.02.1.03.14.05.01-.01.11,0,.12,0-.19-.11.1.02-.15-.14.06.02.18.07.09-.01l.03.02s.04-.11-.11-.22c.27.13.23.08.33.1-.11-.09,0-.14-.09-.23.14.04-.03-.06.18,0-.28-.25-.05-.29.46-.46h.02c-.13-.02-.43-.02-.61-.03.02,0,.07,0,.07,0-.03-.01.25-.05.21-.07t.09,0c-.11,0,.25-.07.05-.07h.07s-.09-.01-.09-.01c.09-.01.23-.03.19-.02.23-.24-.18-.27-.02-.44l.08-.02-.13.02s.06-.02.08-.03c.17-.1-.05-.04,0-.09.04-.02.12-.05.17-.07-.22.07.32-.18-.15.02.02-.01.13-.06.17-.08-.12-.02-.07-.1.04-.25-.19.08-.18.05-.22.04-.05,0-.07-.03-.3.09l.09-.06c-.39.2-.18-.02-.35.02-.01-.03-.13.05-.17.06l.08-.08c-.38.31.12-.27-.29.08l.11-.12c-.18.18.02-.07-.27.26l.08-.1c-.44.49.09-.21-.21.11l.06-.08c-.06.06-.12.12-.07.05,0-.01.03-.03.04-.06.15-.3-.13.05-.17.06l.09-.15c-.12.18-.09.03-.16.12l.03-.07-.06.1.06-.14s-.14.13-.19.16Z"/>
    <path class="cls-1" d="M13.66,14.81h0s0,0,0,0Z"/>
    <path class="cls-1" d="M14.75,16.45h-.02s.02,0,.02,0Z"/>
  </g>
</svg>