<?xml version="1.0" encoding="UTF-8"?>
<svg id="Capa_1" data-name="Capa 1" xmlns="http://www.w3.org/2000/svg" viewBox="0 0 226.57 56.9">
  <defs>
    <style>
      .cls-1 {
        fill: #fff;
      }
    </style>
  </defs>
  <path class="cls-1" d="M14.54,21.24H-.22v-9.87h42.96v9.87h-14.76v34.69h-13.45V21.24Z"/>
  <path class="cls-1" d="M47.16,11.38h13.45v44.55h-13.45V11.38Z"/>
  <path class="cls-1" d="M68.33,11.38h21.72l6.34,30.49,6.34-30.49h21.72v44.55h-13.1V23.28l-7.93,32.65h-14.07l-7.93-32.65v32.65h-13.1V11.38Z"/>
  <path class="cls-1" d="M132.19,11.38h22.07c12,0,17.45,4.77,17.45,11.84,0,5.03-3.03,8.15-7.17,9.1,5.17.89,9.24,5.09,9.24,10.5,0,8.34-6.14,13.11-17.65,13.11h-23.93V11.38ZM152.87,28.69c3.31,0,5.03-1.46,5.03-4.01s-1.72-4.07-5.03-4.07h-7.24v8.08h7.24ZM154.74,46.7c3.52,0,5.24-1.72,5.24-4.39s-1.72-4.39-5.24-4.39h-9.1v8.78h9.1Z"/>
  <path class="cls-1" d="M176.53,33.34c0-13.62,9.65-23.74,24.96-23.74s25.1,10.12,25.1,23.74-9.79,23.68-25.1,23.68-24.96-10.06-24.96-23.68ZM211.97,33.34c0-7.45-3.52-13.11-10.41-13.11s-10.41,5.66-10.41,13.11,3.52,13.05,10.41,13.05,10.41-5.6,10.41-13.05ZM206.04,8.45h-9.79l2.97-8.59h14.83l-8,8.59Z"/>
</svg>