<?xml version="1.0" standalone="no"?>
<!DOCTYPE svg PUBLIC "-//W3C//DTD SVG 1.1//EN" "http://www.w3.org/Graphics/SVG/1.1/DTD/svg11.dtd">
<svg version="1.1" xmlns="http://www.w3.org/2000/svg" viewBox="0 0 283 94.94921875" width="849" height="284.84765625"><!-- svg-source:excalidraw --><metadata></metadata><defs><style class="style-fonts">
      </style></defs><g transform="translate(270.42578125 51.98046875) rotate(0 -128.92578125 -4.505859375)" stroke="none"><path fill="#1e1e1e" d="M 0.94,1.24 Q 0.94,1.24 -1.23,2.84 -3.40,4.43 -6.83,6.73 -10.27,9.03 -14.52,11.58 -18.77,14.13 -22.75,16.08 -26.73,18.03 -31.68,20.17 -36.63,22.30 -44.16,24.69 -51.69,27.07 -60.97,29.03 -70.26,30.99 -78.14,31.94 -86.02,32.89 -93.59,33.29 -101.15,33.70 -111.40,33.87 -121.65,34.03 -135.44,34.11 -149.24,34.18 -159.60,34.21 -169.97,34.24 -178.48,34.25 -186.99,34.26 -194.37,34.27 -201.76,34.27 -207.43,34.27 -213.10,34.28 -221.36,34.28 -229.62,34.28 -234.81,34.28 -240.00,34.28 -243.16,34.28 -246.32,34.28 -248.46,34.28 -250.60,34.28 -252.65,34.11 -254.71,33.94 -256.44,33.43 -258.18,32.92 -259.35,32.01 -260.52,31.11 -261.14,29.30 -261.76,27.49 -261.18,23.61 -260.59,19.73 -258.30,15.94 -256.00,12.15 -248.81,6.12 -241.63,0.09 -234.96,-4.25 -228.29,-8.61 -220.80,-12.34 -213.31,-16.06 -204.94,-19.39 -196.56,-22.72 -187.96,-25.54 -179.37,-28.36 -170.69,-30.71 -162.01,-33.06 -153.20,-34.98 -144.40,-36.90 -130.58,-38.70 -116.76,-40.50 -105.90,-41.31 -95.05,-42.11 -85.64,-42.35 -76.24,-42.59 -67.66,-41.78 -59.07,-40.98 -51.14,-38.68 -43.20,-36.39 -36.17,-33.20 -29.14,-30.02 -24.25,-27.20 -19.35,-24.38 -16.14,-21.74 -12.94,-19.10 -9.75,-15.16 -6.57,-11.23 -3.57,-5.31 -0.57,0.60 1.58,4.89 3.74,9.18 3.81,9.39 3.87,9.59 3.87,9.80 3.86,10.02 3.79,10.22 3.72,10.42 3.59,10.58 3.45,10.75 3.27,10.86 3.10,10.98 2.89,11.03 2.68,11.09 2.47,11.07 2.26,11.05 2.06,10.97 1.87,10.89 1.71,10.75 1.55,10.61 1.44,10.42 1.34,10.24 1.30,10.03 1.26,9.82 1.28,9.61 1.31,9.40 1.40,9.21 1.50,9.02 1.65,8.87 1.80,8.71 1.99,8.62 2.18,8.52 2.39,8.49 2.60,8.46 2.81,8.50 3.01,8.54 3.20,8.64 3.39,8.75 3.53,8.90 3.67,9.06 3.76,9.26 3.84,9.45 3.86,9.66 3.88,9.87 3.83,10.08 3.78,10.29 3.67,10.47 3.55,10.65 3.39,10.78 3.22,10.92 3.02,10.99 2.83,11.07 2.61,11.07 2.40,11.08 2.20,11.02 1.99,10.96 1.82,10.83 1.65,10.71 1.52,10.54 1.40,10.37 1.40,10.37 1.40,10.37 -0.76,6.08 -2.92,1.79 -5.78,-3.90 -8.63,-9.59 -11.63,-13.33 -14.62,-17.08 -17.65,-19.59 -20.67,-22.10 -25.45,-24.86 -30.23,-27.62 -37.09,-30.74 -43.94,-33.86 -51.64,-36.10 -59.33,-38.34 -67.75,-39.14 -76.17,-39.94 -85.51,-39.70 -94.85,-39.46 -105.63,-38.65 -116.41,-37.85 -130.12,-36.06 -143.83,-34.27 -152.56,-32.35 -161.29,-30.44 -169.90,-28.09 -178.51,-25.75 -187.01,-22.94 -195.52,-20.12 -203.78,-16.81 -212.03,-13.50 -219.35,-9.82 -226.66,-6.14 -233.16,-1.84 -239.65,2.45 -246.45,8.16 -253.26,13.88 -255.22,17.10 -257.18,20.33 -257.62,23.52 -258.06,26.70 -257.55,28.38 -257.04,30.05 -255.73,30.63 -254.42,31.21 -252.51,31.43 -250.60,31.65 -248.46,31.65 -246.32,31.65 -243.16,31.65 -240.00,31.65 -234.81,31.65 -229.62,31.65 -221.36,31.65 -213.10,31.64 -207.43,31.64 -201.76,31.64 -194.38,31.63 -186.99,31.63 -178.48,31.61 -169.97,31.60 -159.61,31.57 -149.25,31.54 -135.47,31.46 -121.69,31.39 -111.49,31.22 -101.29,31.04 -93.82,30.64 -86.34,30.24 -78.57,29.31 -70.81,28.37 -61.66,26.43 -52.50,24.49 -45.11,22.15 -37.71,19.80 -32.83,17.67 -27.95,15.55 -24.09,13.63 -20.23,11.72 -16.06,9.18 -11.89,6.63 -8.54,4.34 -5.20,2.04 -3.07,0.40 -0.94,-1.24 -0.77,-1.34 -0.61,-1.43 -0.43,-1.48 -0.25,-1.54 -0.06,-1.54 0.12,-1.55 0.30,-1.51 0.49,-1.48 0.66,-1.40 0.83,-1.32 0.97,-1.20 1.12,-1.08 1.23,-0.93 1.35,-0.78 1.42,-0.60 1.49,-0.43 1.53,-0.25 1.56,-0.06 1.54,0.12 1.53,0.31 1.47,0.48 1.41,0.66 1.31,0.82 1.21,0.98 1.07,1.11 0.93,1.24 0.94,1.24 L 0.94,1.24 Z"></path></g></svg>