<?xml version="1.0" standalone="no"?>
<!DOCTYPE svg PUBLIC "-//W3C//DTD SVG 1.1//EN" "http://www.w3.org/Graphics/SVG/1.1/DTD/svg11.dtd">
<svg version="1.1" xmlns="http://www.w3.org/2000/svg" viewBox="0 0 338.75390625 117.69921875" width="1016.26171875" height="353.09765625"><!-- svg-source:excalidraw --><metadata></metadata><defs><style class="style-fonts">
      </style></defs><g transform="translate(169.09375 44.7890625) rotate(0 0.283203125 14.060546875)" stroke="none"><path fill="#1e1e1e" d="M 0,1.56 Q 0,1.56 -3.91,1.52 -7.82,1.49 -13.06,1.46 -18.31,1.44 -25.35,1.42 -32.39,1.40 -40.03,1.39 -47.67,1.38 -56.02,1.48 -64.36,1.59 -73.43,2.11 -82.50,2.62 -90.22,3.21 -97.93,3.80 -104.34,4.38 -110.75,4.97 -116.16,5.61 -121.57,6.25 -124.78,6.59 -127.98,6.94 -130.44,7.23 -132.90,7.53 -135.74,8.22 -138.58,8.91 -141.01,10.43 -143.43,11.95 -144.30,13.39 -145.17,14.83 -144.81,16.47 -144.46,18.12 -142.32,20.26 -140.19,22.39 -135.23,25.43 -130.28,28.46 -108.99,36.04 -87.71,43.61 -70.58,48.03 -53.45,52.46 -28.22,55.02 -3.00,57.58 14.93,58.71 32.86,59.85 46.35,60.34 59.83,60.83 72.05,60.68 84.27,60.53 94.72,59.25 105.16,57.98 112.67,56.25 120.18,54.52 125.34,52.77 130.51,51.02 135.09,48.74 139.66,46.45 142.92,44.14 146.18,41.84 148.39,39.73 150.61,37.62 152.37,34.99 154.12,32.37 155.34,29.34 156.55,26.30 156.97,23.34 157.39,20.38 156.15,16.96 154.90,13.55 151.36,9.55 147.81,5.54 141.42,1.29 135.04,-2.96 121.69,-8.36 108.34,-13.77 90.68,-18.81 73.02,-23.85 54.60,-26.62 36.19,-29.38 18.46,-30.33 0.74,-31.28 -15.41,-29.44 -31.56,-27.60 -48.20,-22.17 -64.83,-16.74 -82.81,-5.28 -100.78,6.16 -117.23,22.70 -133.68,39.25 -145.92,51.54 -158.16,63.83 -158.33,63.96 -158.50,64.08 -158.71,64.14 -158.91,64.21 -159.12,64.20 -159.33,64.20 -159.53,64.12 -159.73,64.05 -159.90,63.92 -160.06,63.78 -160.18,63.61 -160.29,63.43 -160.35,63.22 -160.40,63.01 -160.38,62.80 -160.36,62.59 -160.28,62.40 -160.20,62.20 -160.06,62.04 -159.91,61.88 -159.73,61.78 -159.54,61.67 -159.34,61.63 -159.13,61.59 -158.92,61.62 -158.71,61.65 -158.52,61.74 -158.32,61.84 -158.17,61.99 -158.02,62.14 -157.93,62.33 -157.83,62.52 -157.80,62.73 -157.78,62.94 -157.82,63.15 -157.86,63.36 -157.96,63.54 -158.06,63.73 -158.22,63.87 -158.38,64.01 -158.57,64.09 -158.77,64.18 -158.98,64.20 -159.19,64.21 -159.40,64.16 -159.61,64.11 -159.78,64.00 -159.96,63.88 -160.10,63.72 -160.23,63.55 -160.30,63.35 -160.38,63.16 -160.38,62.94 -160.39,62.73 -160.33,62.53 -160.27,62.32 -160.14,62.15 -160.02,61.98 -160.02,61.98 -160.02,61.98 -147.78,49.69 -135.54,37.39 -118.87,20.67 -102.20,3.95 -83.93,-7.63 -65.67,-19.23 -48.77,-24.72 -31.87,-30.21 -15.49,-32.06 0.87,-33.90 18.73,-32.94 36.58,-31.97 55.16,-29.18 73.73,-26.38 91.53,-21.29 109.32,-16.21 122.91,-10.67 136.49,-5.14 143.13,-0.67 149.77,3.80 153.56,8.21 157.35,12.63 158.66,16.62 159.97,20.62 159.48,23.94 158.99,27.27 157.65,30.55 156.31,33.83 154.37,36.67 152.43,39.51 150.06,41.75 147.70,43.98 144.27,46.39 140.84,48.80 136.10,51.16 131.35,53.51 126.06,55.30 120.77,57.08 113.12,58.84 105.48,60.59 94.89,61.87 84.30,63.16 72.02,63.32 59.74,63.47 46.22,62.98 32.69,62.48 14.71,61.35 -3.26,60.21 -28.68,57.62 -54.10,55.03 -71.35,50.57 -88.60,46.12 -110.14,38.44 -131.68,30.75 -136.91,27.50 -142.13,24.26 -144.58,21.52 -147.03,18.78 -147.29,16.30 -147.55,13.83 -146.22,11.81 -144.90,9.79 -142.07,8.08 -139.24,6.36 -136.23,5.63 -133.22,4.91 -130.74,4.61 -128.26,4.30 -125.08,3.96 -121.89,3.62 -116.44,2.96 -111.00,2.31 -104.56,1.72 -98.13,1.13 -90.40,0.53 -82.66,-0.06 -73.53,-0.60 -64.40,-1.13 -56.04,-1.25 -47.67,-1.38 -40.03,-1.39 -32.39,-1.40 -25.35,-1.42 -18.31,-1.44 -13.06,-1.46 -7.82,-1.49 -3.91,-1.52 0,-1.56 0.18,-1.53 0.37,-1.51 0.54,-1.45 0.72,-1.38 0.88,-1.27 1.03,-1.16 1.16,-1.02 1.28,-0.88 1.37,-0.72 1.46,-0.55 1.50,-0.37 1.55,-0.18 1.55,0.00 1.55,0.18 1.50,0.37 1.46,0.55 1.37,0.72 1.28,0.88 1.16,1.02 1.03,1.16 0.88,1.27 0.72,1.38 0.54,1.45 0.37,1.51 0.18,1.53 -0.00,1.56 -0.00,1.56 L 0,1.56 Z"></path></g></svg>