<?xml version="1.0" standalone="no"?>
<!DOCTYPE svg PUBLIC "-//W3C//DTD SVG 1.1//EN" "http://www.w3.org/Graphics/SVG/1.1/DTD/svg11.dtd">
<svg version="1.1" xmlns="http://www.w3.org/2000/svg" viewBox="0 0 328.25390625 102.5859375" width="984.76171875" height="307.7578125"><!-- svg-source:excalidraw --><metadata></metadata><defs><style class="style-fonts">
      </style></defs><g transform="translate(109.09375 28.984375) rotate(0 55.033203125 22.30859375)" stroke="none"><path fill="#1e1e1e" d="M 0,1.56 Q 0,1.56 -2.36,1.52 -4.72,1.49 -7.66,1.46 -10.60,1.44 -14.62,1.42 -18.63,1.40 -23.37,1.39 -28.12,1.38 -35.80,1.85 -43.48,2.32 -49.81,3.19 -56.13,4.06 -62.48,5.33 -68.83,6.60 -72.71,7.48 -76.58,8.36 -78.82,8.94 -81.06,9.52 -83.15,10.61 -85.24,11.70 -85.99,12.53 -86.74,13.35 -86.78,15.03 -86.82,16.71 -85.89,18.67 -84.97,20.63 -83.05,23.24 -81.13,25.85 -78.05,28.52 -74.98,31.20 -68.98,34.88 -62.98,38.55 -55.80,42.07 -48.63,45.59 -40.85,48.32 -33.07,51.05 -23.17,53.40 -13.27,55.76 -1.79,57.36 9.67,58.97 22.43,59.83 35.19,60.70 50.25,61.15 65.31,61.60 80.26,61.60 95.21,61.60 108.31,60.60 121.41,59.60 132.47,57.90 143.53,56.21 151.34,54.66 159.16,53.12 165.16,51.78 171.16,50.45 176.03,49.10 180.91,47.75 185.05,46.41 189.19,45.08 192.69,43.80 196.18,42.53 198.75,41.44 201.32,40.36 203.24,38.68 205.16,37.01 205.62,35.79 206.09,34.57 205.09,32.76 204.09,30.94 200.87,28.05 197.66,25.16 190.55,20.67 183.43,16.17 171.71,10.73 159.99,5.29 144.35,0.37 128.71,-4.54 109.20,-8.04 89.68,-11.54 67.23,-13.29 44.78,-15.05 20.71,-13.87 -3.35,-12.70 -24.66,-8.83 -45.98,-4.96 -61.11,-0.42 -76.24,4.10 -87.47,7.47 -98.71,10.83 -98.92,10.86 -99.13,10.89 -99.34,10.84 -99.55,10.80 -99.74,10.70 -99.92,10.59 -100.06,10.43 -100.20,10.27 -100.29,10.07 -100.37,9.88 -100.39,9.67 -100.40,9.45 -100.35,9.25 -100.30,9.04 -100.18,8.86 -100.06,8.68 -99.90,8.55 -99.73,8.42 -99.53,8.35 -99.33,8.27 -99.11,8.27 -98.90,8.26 -98.70,8.33 -98.50,8.39 -98.32,8.52 -98.15,8.64 -98.03,8.82 -97.90,8.99 -97.84,9.20 -97.78,9.40 -97.79,9.61 -97.80,9.83 -97.87,10.03 -97.95,10.23 -98.08,10.39 -98.22,10.56 -98.40,10.67 -98.58,10.78 -98.78,10.83 -98.99,10.88 -99.20,10.86 -99.42,10.85 -99.61,10.76 -99.81,10.67 -99.96,10.53 -100.12,10.39 -100.23,10.20 -100.33,10.01 -100.37,9.81 -100.41,9.60 -100.38,9.38 -100.35,9.17 -100.25,8.98 -100.15,8.79 -100.00,8.64 -99.85,8.49 -99.66,8.40 -99.47,8.31 -99.47,8.31 -99.47,8.31 -88.23,4.94 -76.99,1.57 -61.72,-2.99 -46.45,-7.56 -24.96,-11.45 -3.48,-15.34 20.75,-16.52 44.99,-17.70 67.57,-15.93 90.16,-14.17 109.83,-10.64 129.51,-7.10 145.32,-2.13 161.13,2.83 173.01,8.34 184.89,13.85 192.21,18.47 199.54,23.10 203.08,26.38 206.62,29.67 207.70,32.30 208.77,34.93 207.86,36.92 206.94,38.91 204.66,40.83 202.38,42.76 199.73,43.88 197.08,45.00 193.54,46.29 190.00,47.58 185.80,48.94 181.61,50.29 176.67,51.65 171.73,53.02 165.70,54.37 159.67,55.71 151.80,57.27 143.93,58.83 132.77,60.54 121.62,62.25 108.41,63.26 95.21,64.27 80.22,64.27 65.23,64.28 50.12,63.83 35.01,63.39 22.15,62.53 9.29,61.67 -2.30,60.06 -13.90,58.45 -23.95,56.08 -33.99,53.71 -41.94,50.95 -49.89,48.19 -57.21,44.65 -64.53,41.11 -70.77,37.34 -77.01,33.57 -80.38,30.71 -83.75,27.85 -85.97,25.00 -88.19,22.14 -89.43,19.45 -90.67,16.75 -90.48,15.13 -90.30,13.51 -89.59,12.31 -88.88,11.10 -87.67,10.23 -86.47,9.35 -84.10,8.15 -81.74,6.95 -79.46,6.36 -77.18,5.77 -73.27,4.87 -69.36,3.97 -62.93,2.68 -56.50,1.39 -50.08,0.49 -43.65,-0.39 -35.88,-0.88 -28.12,-1.38 -23.37,-1.39 -18.63,-1.40 -14.62,-1.42 -10.60,-1.44 -7.66,-1.46 -4.72,-1.49 -2.36,-1.52 0,-1.56 0.18,-1.53 0.37,-1.51 0.54,-1.45 0.72,-1.38 0.88,-1.27 1.03,-1.16 1.16,-1.02 1.28,-0.88 1.37,-0.72 1.46,-0.55 1.50,-0.37 1.55,-0.18 1.55,0.00 1.55,0.18 1.50,0.37 1.46,0.55 1.37,0.72 1.28,0.88 1.16,1.02 1.03,1.16 0.88,1.27 0.72,1.38 0.54,1.45 0.37,1.51 0.18,1.53 -0.00,1.56 -0.00,1.56 L 0,1.56 Z"></path></g></svg>