<?xml version="1.0" encoding="UTF-8"?>
<svg id="Capa_1" data-name="Capa 1" xmlns="http://www.w3.org/2000/svg" viewBox="0 0 47.22 21.7">
  <g>
    <path d="M26.71,7.13c.24.18.47-.37.54-.51.72-1.36,1.09-3.21,1.92-4.55l.63-.14-2.47,5.89c-.64.94-.94,0-1.12-.69s-.26-2.6-.56-3.1c-.13-.21-.16-.1-.29,0-.78.61-1.29,4.44-1.69,5.49h-.48c-.35-.34,1.25-5.13,1.48-5.91.06-.2.34-2.52.85-1.69-.1.89.44,1.16.69,1.84.22.58.36,3.27.5,3.37Z"/>
    <path d="M34.86,3.62l.7.21-.82.58-.16,2.44-.43-.06c-.56-.41.53-2.34-.06-2.43-.64.25-2.11.31-2.6.74-.63.55-.62,2.06-.98,2.64-.07.11-.39.3-.51.1-.16-.27-.06-.58,0-.86.31-1.56,2.08-5.55,3.38-6.46.3-.21.56-.37.95-.26,1.05.8.67,2.24.52,3.35ZM31.77,4.32l2.6-.7c.21-1.68.23-4.23-1.53-1.68-.2.29-1.24,2.21-1.07,2.38Z"/>
    <path d="M15.86.56c.51,1-.12,2.05-.61,2.91-.35.62-2.87,4.04-2.87,4.3.2.28.48.23.76.21.91-.05,2.16-.56,3.09-.57.29,0,.41-.08.35.28-1.49.64-3.11.74-4.69.97-.37-.21-.24-.61-.12-.94.49-1.4,2.47-3.44,3.24-4.91,1.51-2.92-1.24-1.44-2.85-1.73-.24-.04-.39-.15-.35-.42,1.35.16,2.72-.56,4.04-.11Z"/>
    <path d="M22.46.99c1.32,1.08-.06,4.38-1.23,5.22-.39.28-1.43.76-1.89.79-1.09.06-1.59-1.03-1.44-2.01.28-1.76,1.35-4.06,3.4-4.19.34-.02.89-.03,1.16.19ZM19.88,2.12c-.36.41-1.4,2.47-1.45,2.99-.16,1.68,1.42,1.4,2.43.73,1.19-.79,2.32-3.28,1.13-4.45-.8-.19-1.58.13-2.11.73Z"/>
  </g>
  <g>
    <path d="M21.82,14.44c.8.8-.86,6.1-1.37,7.21-.2.18-.44-.07-.43-.28.49-1.5,1.2-3.26,1.37-4.82.23-2.21-.28-2.13-1.4-.56-1.02,1.43-1.75,3.12-2.71,4.6-.75.18.11-2.04.17-2.36.11-.57.6-2.8.04-3.06-.67.18-1.21,1.23-1.53,1.85-.64,1.26-1.04,3.24-1.63,4.27-.37.64-.65.52-.58-.15.04-.38,1.88-5.37,2.08-5.58.08-.08.33-.07.45-.17.54-.48.84-1.06,1.73-.82.68,1.05.08,2.01-.06,3.05-.02.13-.16.42.15.29.25-.11,1.14-1.84,1.42-2.23.41-.58,1.46-2.06,2.27-1.24Z"/>
    <path d="M26.76,21.41h-.56s.7-3.09.7-3.09c-.11-.1-2.67.42-2.89.55-.57.34-1.2,2.71-1.34,2.8s-.56.14-.54-.19c.02-.44.33-1.04.5-1.47.67-1.69,1.79-4.54,3.3-5.55.5-.33,1.03-.45,1.47.07,1.39,1.64-.59,5.01-.63,6.88ZM27.03,17.88c.38-.71.62-3.27-.61-3.08-.71.11-2.5,3.22-2.32,3.38l2.93-.3Z"/>
    <path d="M47.28,17.51l-.68.37c-.07.6,0,3.87-.51,3.99l-.35-.35c.19-.84.39-1.81.43-2.67.01-.32.07-.71-.22-.91l-2.6.48c-.22.13-1.14,3.17-1.68,2.6-.02-.24,0-.47.07-.71.19-.67,1.52-3.87,1.87-4.46.11-.19,1.4-1.53,1.59-1.64,1.51-.88,1.44,2.19,1.41,3.06l.68.23ZM43.62,17.79c1.53-.28,2.74.5,2.49-1.58-.16-1.29-.53-2.13-1.49-.71-.17.25-1.13,2.17-1.01,2.29Z"/>
    <path d="M3.58,15.46c-.32-.32-1.82,1.55-2,1.87-.83,1.44-1.08,4.1,1.35,3.04.36-.16.72-.54,1.03-.66.8-.29-.16.71-.39.87-2.37,1.66-3.73-.05-2.91-2.49.32-.94,1.9-3.22,2.91-3.41.95-.17.59,2.18.22,2.18l-.48-.51.27-.89Z"/>
    <path d="M31.4,15.27c.2,1.44-.45,2.88-.69,4.3-.1.58.19,1.81-.72,1.74l.97-5.81-.31-.2-1.44.4c-.24-.33.05-.51.35-.63.83-.33,3.32-.61,4.15-.36.21.06.49.02.48.36-.34.47-.86.08-1.21.09-.5.02-1.05.24-1.6.13Z"/>
    <path d="M6.54,20.67c1.07.21,1.87-.53,2.88-.56l.08.35c-1.22.57-3.99,1.9-3.45-.64.36-1.7,1.35-2.88,1.48-4.84.04-.67.44-.27.53.03.36,1.17-1.94,5.23-1.52,5.66Z"/>
    <path d="M41.8,15.54c-1.26-.47-1.95.44-2.56,1.45-.5.83-1.31,2.75-.33,3.48.47.36.86-.11,1.3-.27.11-.04.49-.28.46.05-.04.37-1.23,1.05-1.79.81-2.03-.88-.19-4.73.99-5.75.56-.48,1.88-.92,1.92.23Z"/>
    <path d="M35.33,14.55c.06.06.15.61.14.76-.07.88-.75,2.67-.94,3.71-.14.75-.09,1.6-.3,2.34l-.43.08c-.25-.16.25-2.63.34-3.09.23-1.11.53-2.43.85-3.51.04-.14.14-.48.35-.28Z"/>
    <path d="M12.85,15.08c.32.21-.42,2.31-.52,2.77-.19.95-.23,2-.45,2.92l-.43.06c-.07-1.97.79-3.84.98-5.76h.41Z"/>
    <path d="M28.45,12.8c-.05-.29.03-.37.21-.56.15-.16,1.77-1.45,1.89-1.49.72-.2.33.41.01.72-.27.26-1.85,1.58-2.11,1.33Z"/>
  </g>
</svg>